<?xml version="1.0" encoding="UTF-8"?><svg id="a" xmlns="http://www.w3.org/2000/svg" width="549.71" height="516.02" viewBox="0 0 549.71 516.02"><path d="M128.65,342.74c-9.66,11.78-20.46,22.57-32.23,32.23,24.25,8.33,48.09,15.31,69.66,17.18,0,0,21.14-16.78,32.28-32.73-20.62,1.76-44.03-6.26-69.71-16.67h0Z" fill="#aee865"/><path d="M129.93,343.64c.53.28.98.56,1.61.85,4.5,2.07,9.12,4.07,13.95,5.81,2.22.83,4.45,1.61,6.65,2.41,3.82,1.32,7.68,2.59,11.57,3.6,8.47,2.26,17.16,3.92,25.99,4.2,1.1.07,2.21,0,3.31.02.55,0,1.1,0,1.65-.02l1.45-.09.38-.03h.1s-.02.03-.03.05l-.1.15-.42.6c-.31.44-.63.88-.97,1.3-2.61,3.44-5.49,6.7-8.44,9.88-3.33,3.57-6.82,7.01-10.4,10.34-1.79,1.67-3.62,3.3-5.46,4.92l-2.79,2.39-1.41,1.18-.59.49c-.08.05-.18,0-.28,0l-.44-.04c-9.76-.82-19.43-2.69-28.97-4.98-7.97-1.95-15.88-4.15-23.69-6.67l-8.06-2.6-4.02-1.33-3.54-1.21,4.47-3.69c1.96-1.64,3.91-3.35,5.82-5.1,2.91-2.68,5.81-5.36,8.54-8.24.42-.44.85-.88,1.27-1.32,2.92-2.96,5.79-5.99,8.38-9.24,1.11-1.39,2.3-2.86,2.9-4.06.38-.77.22-.79-.61.08-.93.98-1.91,2-2.85,3.05-3.34,3.7-6.67,7.45-10.18,11.01-3.14,3.18-6.39,6.25-9.68,9.29-1.36,1.26-2.82,2.52-4.27,3.72-1.99,1.63-3.97,3.26-5.97,4.9,1.75.6,3.51,1.2,5.27,1.81.43.15.88.28,1.29.44,4,1.54,8.19,2.79,12.3,4.12,3.16,1.03,6.36,2.07,9.61,2.92.29.07.59.17.87.26,2.2.75,4.52,1.32,6.78,1.94,4.98,1.35,10.04,2.47,15.13,3.51,6.35,1.28,12.77,2.35,19.25,2.86l1.09.1c.32-.25.77-.61.87-.7l1.06-.87,2.1-1.76c2.47-2.11,4.95-4.23,7.33-6.46,4.16-3.88,8.22-7.88,12.05-12.11,1.91-2.12,3.78-4.27,5.54-6.52l1.32-1.69c.22-.28.42-.58.63-.87l.83-1.15,1.05-1.46.51-.72.26-.36-.45.03-3.52.24c-3.92.27-7.92.1-11.86-.35-5.34-.56-10.64-1.55-15.88-2.77-10.33-2.41-20.38-6.01-30.34-9.71l-6.17-2.39c-.42-.16-.91-.36-1.25-.45-.66-.17-1.7-.54-1.8-.39-.09.13.7.54,1.3.86l-.04.02Z" fill="#1c1f58"/><path d="M129.93,343.64c.53.28.98.56,1.61.85,4.5,2.07,9.12,4.07,13.95,5.81,2.22.83,4.45,1.61,6.65,2.41,3.82,1.32,7.68,2.59,11.57,3.6,8.47,2.26,17.16,3.92,25.99,4.2,1.1.07,2.21,0,3.31.02.55,0,1.1,0,1.65-.02l1.45-.09.38-.03h.1s-.02.03-.03.05l-.1.15-.42.6c-.31.44-.63.88-.97,1.3-2.61,3.44-5.49,6.7-8.44,9.88-3.33,3.57-6.82,7.01-10.4,10.34-1.79,1.67-3.62,3.3-5.46,4.92l-2.79,2.39-1.41,1.18-.59.49c-.08.05-.18,0-.28,0l-.44-.04c-9.76-.82-19.43-2.69-28.97-4.98-7.97-1.95-15.88-4.15-23.69-6.67l-8.06-2.6-4.02-1.33-3.54-1.21,4.47-3.69c1.96-1.64,3.91-3.35,5.82-5.1,2.91-2.68,5.81-5.36,8.54-8.24.42-.44.85-.88,1.27-1.32,2.92-2.96,5.79-5.99,8.38-9.24,1.11-1.39,2.3-2.86,2.9-4.06.38-.77.22-.79-.61.08-.93.98-1.91,2-2.85,3.05-3.34,3.7-6.67,7.45-10.18,11.01-3.14,3.18-6.39,6.25-9.68,9.29-1.36,1.26-2.82,2.52-4.27,3.72-1.99,1.63-3.97,3.26-5.97,4.9,1.75.6,3.51,1.2,5.27,1.81.43.15.88.28,1.29.44,4,1.54,8.19,2.79,12.3,4.12,3.16,1.03,6.36,2.07,9.61,2.92.29.07.59.17.87.26,2.2.75,4.52,1.32,6.78,1.94,4.98,1.35,10.04,2.47,15.13,3.51,6.35,1.28,12.77,2.35,19.25,2.86l1.09.1c.32-.25.77-.61.87-.7l1.06-.87,2.1-1.76c2.47-2.11,4.95-4.23,7.33-6.46,4.16-3.88,8.22-7.88,12.05-12.11,1.91-2.12,3.78-4.27,5.54-6.52l1.32-1.69c.22-.28.42-.58.63-.87l.83-1.15,1.05-1.46.51-.72.26-.36-.45.03-3.52.24c-3.92.27-7.92.1-11.86-.35-5.34-.56-10.64-1.55-15.88-2.77-10.33-2.41-20.38-6.01-30.34-9.71l-6.17-2.39c-.42-.16-.91-.36-1.25-.45-.66-.17-1.7-.54-1.8-.39-.09.13.7.54,1.3.86l-.04.02Z" fill="#1c1f58"/><path d="M112.77,377.32c.39.25.72.51,1.2.77,3.44,1.75,7.11,3.09,10.91,4.19,1.75.51,3.51,1,5.25,1.48,3,.82,6.04,1.55,9.05,2.16,2.63.55,5.26,1.05,7.9,1.54l3.96.7,4.45.73c.16-.16.34-.36.48-.48l.22-.21.14-.12c.17-.14.36-.28.54-.41.38-.27.78-.51,1.19-.73.83-.44,1.72-.81,2.63-1.12,1.83-.6,3.76-.93,5.72-1.09.98-.05,1.96-.11,2.95-.08h.39c.23,0,.45.03.65-.02l.5-.38.33-.26c.39-.35.79-.7,1.14-1.06,1.47-1.42,2.85-2.89,4.23-4.37l4.35-4.77c1.51-1.7,3.03-3.4,4.54-5.11l-.52-.86c-.15-.26-.22-.4-.33-.62-.19-.39-.36-.8-.51-1.21s-.27-.83-.37-1.26c-.05-.24-.08-.36-.14-.73l-.12-.97-2.06-.09c-.55-.03-1.11-.02-1.66-.08-1.1-.13-2.21-.25-3.31-.4l-3.3-.58-3.28-.72c-4.35-1.03-8.66-2.3-12.92-3.69-5.99-1.97-11.93-4.11-17.76-6.51l-2.06-.86-.51-.21-.32-.14-.16-.07c-.06,0-.11.03-.17.05l-.33.11c-.09.03-.17.06-.26.08-.18.04-.35.1-.53.14-1.41.33-2.89.4-4.33.2-.72-.1-1.43-.27-2.12-.5-.17-.06-.33-.11-.57-.21l-.32-.13-.16-.07c-.05-.02-.11-.06-.15,0l-.89.94c-1.02,1.08-2.06,2.16-3.1,3.22-1.38,1.4-2.76,2.83-4.12,4.28-2.09,2.21-4.23,4.35-6.27,6.6-.31.35-.63.69-.96,1.03l-2.89,2.99-.07.45c0,.13-.11.36.04.35.18.08.4.28.66.58.23.09.53.14.71.25.11.07.24.13.33.22.21.16.39.35.56.57.34.42.5.99.63,1.55.22,1.25.02,2.66.05,3.69.04.67.18.66.49-.24.35-1,.59-2.13.51-3.32-.04-.74-.23-1.52-.66-2.21-.1-.18-.22-.34-.36-.49-.13-.16-.27-.3-.44-.43-.15-.14-.33-.25-.5-.35-.12-.07-.08-.05-.14-.08l-.1-.05c-.13-.05-.26-.09-.4-.1-.14.02.02-.08.04-.12l.16-.17,3.37-3.61c2.37-2.5,4.76-4.98,7.1-7.52.97-1.05,2-2.12,3.02-3.15l2.8-2.86.64-.66c.07-.06.12-.16.21-.08l.06.03.17.06c.17.06.34.12.51.17.34.11.69.2,1.04.28.37.07.75.14,1.1.2,1.73.33,3.56.22,5.29-.27.53-.12.07-.14.55.02l1.16.48,2.31.95c2.36.99,4.75,2,7.2,2.83.22.07.44.17.65.26,1.63.73,3.39,1.29,5.08,1.91,3.74,1.33,7.55,2.51,11.4,3.6,4.8,1.35,9.68,2.61,14.72,3.11l1.04.12,1.06.05,1.21.05h0l.12.65c.1.48.24.95.39,1.42.16.46.34.92.55,1.36l.16.33.13.25.02.04-.86.96c-2.89,3.25-5.82,6.47-8.82,9.61-.75.78-1.51,1.56-2.27,2.31-.38.37-.77.75-1.16,1.09-.19.18-.39.36-.56.48-.08.07-.06.07-.22.07-2.22-.05-4.46.13-6.65.57-1.48.32-2.95.73-4.38,1.31-.71.28-1.41.64-2.08,1.03-.33.2-.66.41-.98.65-.15.11-.33.25-.46.36-.09.08-.16.14-.2.18-.04,0-.08-.01-.13-.02l-6-1.05c-2.04-.38-4.08-.76-6.12-1.13-8.02-1.55-16.01-3.39-23.76-5.91-1.61-.52-3.18-1.14-4.74-1.77-.31-.14-.68-.31-.94-.38-.51-.14-1.29-.46-1.4-.31-.09.12.49.49.93.78v-.04Z" fill="#1c1f58"/><path d="M160.03,373.12c-.1.15-.2.28-.32.44-.71,1.2-1.84,2-3.1,2.72-.57.34-1.22.59-1.86.79-1.11.37-2.28.62-3.44.83-5.09.87-10.63.2-15.31-2.13-1.29-.68-2.53-1.52-3.45-2.63-.9-1.09-1.52-2.48-1.23-3.86.21-1.39,1.24-2.56,2.43-3.4,1.21-.85,2.62-1.43,4.07-1.82,2.43-.64,4.99-.89,7.52-.67,2.37.21,4.78.51,6.99,1.45.72.31,1.44.64,2.15.99,1.07.55,2.03,1.27,2.97,1.98.14.12.28.23.41.36.86.9,1.52,1.9,1.98,2.97.09.23.14.49.25.72.07.24.14.47.29.68.19.27.33.28.42-.12.14-.45.13-.95.07-1.44-.35-1.73-1.58-3.06-2.81-4.11-1.12-.94-2.37-1.71-3.7-2.28-.55-.24-1.12-.49-1.67-.73-1.03-.44-2.1-.79-3.2-1.02-.14-.03-.3-.04-.43-.08-1.31-.47-2.74-.5-4.12-.64-1.07-.08-2.16-.16-3.24,0-.1.02-.2.02-.29,0-.76-.07-1.53.11-2.29.21-1.67.26-3.31.82-4.87,1.6-.97.51-1.92,1.12-2.75,1.95-.81.83-1.47,1.95-1.65,3.19-.08.34-.08.69-.07,1.04-.02.35.05.69.11,1.03.26,1.2.82,2.28,1.55,3.14,1.33,1.47,2.93,2.52,4.6,3.33,1.68.8,3.44,1.34,5.23,1.64,1.25.22,2.51.48,3.78.6,1.72.18,3.47.14,5.18-.09,1.69-.23,3.36-.6,4.96-1.22,1.58-.63,3.16-1.48,4.27-2.86l.34-.42c.1-.15.19-.31.28-.47.21-.3.32-.66.45-1,.06-.14.09-.31.07-.44-.04-.24,0-.59-.19-.62-.15-.02-.29.22-.4.4h.02Z" fill="#1c1f58"/><path d="M374.01,353.34c8.59,2.81,36.59,3.5,56.83-13.51s17.33-18.98,17.33-18.98c0,0-25.25,19.55-43.49,11.11-8.73,9.06-19.15,16.32-30.67,21.38h0Z" fill="#aee865"/><path d="M375.16,353.21c.42-.12.81-.2,1.28-.38,3.37-1.3,6.69-2.9,9.89-4.86,1.47-.9,2.93-1.82,4.36-2.76,2.46-1.63,4.83-3.42,7.06-5.31,2.43-2.07,4.76-4.26,6.98-6.56.2-.2.13-.14.16-.17.01-.02.03-.03.05-.02h.03l.11.05.58.23c.77.31,1.57.51,2.36.75,1.6.37,3.22.67,4.86.73,3.26.22,6.51-.19,9.65-.89,3.15-.69,6.17-1.77,9.11-3.01,3.3-1.42,6.48-3.08,9.55-4.92.77-.46,1.53-.93,2.28-1.42l1.12-.73.99-.67c.42-.3.86-.61,1.3-.94l.33-.26c.12.05.11.23.1.35-.03.26-.13.51-.25.75-.11.25-.27.47-.41.71-.16.25-.29.4-.58.81-.55.69-1.09,1.38-1.69,2.03-1.16,1.33-2.41,2.6-3.68,3.84-2.54,2.48-5.18,4.86-7.89,7.18-1.13.96-2.24,1.96-3.43,2.84l-1.75,1.36-.88.68-.93.61-1.86,1.21c-.62.4-1.24.82-1.9,1.15-1.31.68-2.59,1.44-3.94,2.06-5.04,2.4-10.37,4.28-15.88,5.28-.91.15-1.83.29-2.74.44-.92.16-1.84.3-2.76.4-1.41.17-2.82.34-4.25.39l-2.13.14-2.13.07c-.44.02-.88.04-1.32.04-2.99-.1-5.96-.32-8.92-.63-.63-.09-1.28-.19-1.89-.25-.61-.08-1.17-.17-1.67-.14-.64.03-.63.17.2.49.93.39,1.94.65,2.96.87,3.61.73,7.31.79,10.97.72,3.27-.02,6.55-.34,9.8-.82,1.33-.26,2.73-.46,4.09-.69l3.73-.79c1.23-.31,2.45-.69,3.68-1.06.32-.1.65-.2.95-.29,1.5-.46,3.01-.96,4.48-1.56,1.45-.66,2.92-1.28,4.35-1.97,1.09-.56,2.18-1.13,3.27-1.69,1.09-.57,2.1-1.3,3.12-1.98.18-.12.38-.24.57-.35.37-.21.75-.41,1.11-.66l1.04-.78c.69-.53,1.38-1.06,2.07-1.58,2.96-2.33,5.72-4.86,8.5-7.41,1.74-1.58,3.44-3.22,5.09-4.94.81-.87,1.62-1.75,2.37-2.7.41-.5.63-.78,1.4-1.91.3-.47.47-.89.7-1.34.09-.21.27-.47.28-.63l.11-.53.07-.3v-.24c-.03-.16-.01-.33-.07-.46-.03-.15-.09-.29-.18-.43-.04-.07-.1-.14-.16-.21l-.11-.1s-.02-.02-.04-.03c-.11-.05-.22-.13-.41-.26l-.13-.09s-.23.13-.34.19l-.74.47-1.42,1.01-1.3.88-1.47.94c-.98.62-1.98,1.21-2.98,1.81-3.49,2.07-7.14,3.88-10.92,5.33-3.78,1.46-7.7,2.51-11.69,2.97-2.81.31-5.68.09-8.41-.56-.47-.09-.92-.23-1.37-.38-.45-.15-.91-.26-1.35-.46l-.69-.28c-.37-.13-.76-.36-1.1-.39l-1.34,1.37c-1.36,1.4-2.76,2.74-4.19,4.07-5.65,5.19-12.01,9.61-18.73,13.32-1.41.75-2.83,1.48-4.26,2.18-.29.14-.64.29-.85.44-.41.28-1.12.65-1.07.83.04.15.66-.04,1.13-.17v-.03Z" fill="#1c1f58"/><path d="M387.93,354.95c36.46,1.1,89.11-27.72,84.62-81.85-13.88-2.07-27.94-2.49-41.92-1.25.92,3.64,1.78,7.52,2.59,11.64,11.34,57.35-26.75,69.65-45.3,71.46" fill="#aee865"/><path d="M389.8,355.09c.72-.04,1.36-.03,2.2-.13,5.97-.72,11.97-2.31,17.61-5.09,2.6-1.27,5.1-2.76,7.44-4.42,2.04-1.41,3.91-3.07,5.69-4.81.84-.92,1.74-1.78,2.49-2.77l1.17-1.44,1.06-1.51c3.1-4.41,5.23-9.43,6.64-14.59,1.4-5.17,2.01-10.5,2.07-15.81s-.41-10.61-1.21-15.83c-.84-5.23-2.15-10.33-3.32-15.46l-.14-.59c0-.06-.08-.18-.01-.19l.22-.02,1.83-.16c1.47-.12,2.94-.22,4.41-.3,2.94-.16,5.89-.25,8.83-.27,5.89-.03,11.79.25,17.67.81,1.47.15,2.94.3,4.4.49.73.09,1.46.18,2.2.28l.91.12c.34-.06.23.29.27.52l.23,4.35-.05,4.42c-.25,5.89-1.22,11.74-2.97,17.37-2.95,9.39-7.91,18.16-14.56,25.45-6.24,6.87-13.57,12.82-21.78,17.22-2.68,1.48-5.5,2.81-8.32,4.07-4.35,1.88-8.84,3.37-13.4,4.65-.7.19-1.41.41-2.12.57-4.85,1.13-9.78,1.85-14.71,2.31-1.06.08-2.16.15-3.18.25-1.02.05-1.98.13-2.77.28-1.01.19-.92.33.54.42.82.05,1.65.11,2.5.13.85-.01,1.71-.02,2.57-.03,6.07-.2,12.1-1.41,17.96-2.99,5.23-1.43,10.37-3.29,15.29-5.63,1.03-.46,2.05-1,3.08-1.51,1.04-.51,2.07-1.03,3.06-1.6,3.72-1.98,7.28-4.27,10.65-6.86.44-.34.88-.7,1.32-1.01,4.19-3.09,7.99-6.86,11.43-10.83.68-.75,1.34-1.52,1.95-2.33.63-.8,1.27-1.6,1.88-2.41,1.15-1.69,2.36-3.35,3.32-5.16.18-.31.38-.64.58-.94,1.51-2.4,2.76-5.04,3.88-7.67,2.48-5.79,4.03-11.99,4.78-18.26.13-.98.18-1.96.27-2.94.06-.98.21-1.96.19-2.95,0-1.97.14-3.95-.02-5.91l-.17-3.43-.04-.73s0-.07-.02-.08h-.09l-.18-.04-.36-.05-1.3-.18-1.45-.2c-1.94-.25-3.88-.47-5.83-.64-2.19-.19-4.39-.39-6.58-.52-3.91-.24-7.84-.42-11.77-.38-3.43.03-6.87.16-10.29.38l-2.57.18-3.61.31h-.07s0,.05.01.07l.03.15.07.29.13.58.27,1.18.29,1.27.57,2.49c1.61,6.62,2.92,13.28,3.5,20.02.4,4.73.34,9.55-.21,14.29-.8,6.38-2.45,12.71-5.47,18.39-1.48,2.79-3.24,5.44-5.3,7.85-2.08,2.39-4.41,4.56-6.95,6.46-5.08,3.81-10.94,6.55-17.04,8.37-2.54.75-5.12,1.34-7.73,1.77-.53.08-1.16.17-1.57.27-.79.2-2.1.37-2.14.56-.03.15,1.05.13,1.86.1l-.02-.02Z" fill="#1c1f58"/><path d="M414.38,345.71c-.19.07-.38.1-.57.21l-1.03.59c-.36.17-.72.34-1.07.52-.69.38-1.41.69-2.13,1.05-.64.36-1.36.56-2.04.82-1.19.39-2.4.75-3.61,1.05-1.92.49-3.9.81-5.89.95-1,.07-2,.11-3,.09-.5,0-1-.02-1.5-.04-.13,0-.3.03-.37-.03.01-.04.03-.09.04-.13,0-.02.01-.05.01-.08l.02-.19c.07-.6-.17-1.34-.73-1.68-.26-.18-.6-.3-.84-.34-.26-.05-.49-.06-.72-.06-.45,0-.87.06-1.28.13-1.07.21-2.05.53-3.05.91l.54,1.02c4.2-3.33,8.44-6.61,12.74-9.82l3.12-2.36s.1-.09.15-.1l.18.06c.12.04.23.07.41.12.33.09.67.16,1,.22.67.12,1.36.17,2.04.17.9,0,1.81-.13,2.67-.38.44-.12.86-.27,1.28-.45.21-.08.41-.19.62-.28l.52-.27,1.05.12,1.14.11c.84.09,1.69.09,2.54.05,1.3-.07,2.61-.15,3.88-.47.19-.05.39-.1.59-.14,1.35-.26,2.7-.61,3.91-1.27.52-.28,1.07-.57,1.32-1.03.16-.29.07-.4-.31-.32-.43.1-.88.21-1.3.35-1.51.5-3.01,1.03-4.57,1.35-1.39.27-2.81.39-4.23.48-.59.04-1.2.01-1.79-.05-.37-.03-.73-.08-1.1-.12l-1.35-.17-.69.36-.47.22c-.12.05-.25.12-.38.15-1.25.28-2.51.61-3.79.52-.49-.03-.97-.12-1.45-.22-.53-.12-.74-.17-1.92-.52-.16.03-.31.2-.46.27-.25.16-.49.31-.73.47l-.47.33-.92.68c-1.37.96-2.66,2.01-4.01,3.01-1.68,1.24-3.39,2.44-5.02,3.76-.46.37-.93.72-1.4,1.08-.83.64-1.7,1.22-2.53,1.88l-1.19.94.93,1.75c1.1-.42,2.34-.79,3.43-.88.27-.02.53-.01.71.02.16.03.17.03.23.09.02.03.04.06.04.09v.13h0s.01-.03-.02.09l-.04.11c-.17.55-.46,1.15-.67,1.66l.14.04.2.02.39.04c.25.03.51.06.76.08.48.04,1.1.09,1.32.08,1.32.01,2.64.1,3.97.04,1.79-.06,3.57-.27,5.31-.68,3.43-.75,6.8-2.01,9.68-4.03.62-.38,1.18-.85,1.74-1.32.11-.1.25-.2.31-.31.12-.21.37-.46.26-.6-.09-.12-.37-.01-.59.07h.04Z" fill="#1c1f58"/><path d="M457.25,323.6c.1-.11.23-.2.31-.34.6-1.02,1.11-2.11,1.4-3.31l.42-1.65c.23-.95.37-1.95.33-2.98-.02-.56-.08-1.14-.24-1.73-.15-.59-.4-1.22-.89-1.78-.48-.56-1.24-.93-1.93-1-.7-.08-1.32.04-1.88.21-2.21.75-3.81,2.14-5.32,3.55-3.34,3.25-6.06,6.96-8.59,10.78-1.05,1.6-1.99,3.27-2.97,4.92-.92,1.56-1.62,3.22-2.52,4.79-.3.52-.58,1.05-.83,1.6-.39.83-.84,1.64-1.14,2.52-.05.13-.1.27-.16.4-.42.88-.83,1.76-1.02,2.72-.08.41-.19.84,0,1.22.12.25.26.27.43.04.19-.26.38-.54.52-.84.51-1.04.84-2.15,1.3-3.21.42-.94.84-1.89,1.26-2.83.16-.4.38-.79.6-1.16.4-.69.8-1.38,1.16-2.1.05-.09.08-.2.14-.28.62-.79.99-1.72,1.53-2.55.41-.64.87-1.26,1.2-1.96.03-.06.08-.12.12-.17.37-.39.61-.89.92-1.32.68-.96,1.27-1.99,1.96-2.94.86-1.19,1.8-2.33,2.67-3.52.25-.33.51-.65.78-.96.47-.57,1-1.08,1.49-1.63,1.7-1.92,3.62-3.67,5.7-4.99.73-.45,1.6-.69,2.29-.63.48.03.82.22,1.1.57.27.36.46.88.56,1.44.2,1.11.11,2.33-.06,3.52-.18,1.2-.45,2.39-.73,3.58l-.41,1.47c-.03.1-.07.22-.05.31.03.18,0,.43.16.5.14.06.29-.11.41-.24l-.02-.02Z" fill="#1c1f58"/><path d="M471.97,287.03c-.18-.27-.33-.51-.54-.81-1.56-2.09-2.4-4.61-2.46-7.19v-.56l.06-.92.05-.92v-.06h-.86c-.86,0-1.72-.02-2.58-.03-2.21-.04-4.44-.05-6.63,0l-13.41.26-1.68.03-1.07.02h-.75l-.38.02h-.28s0,.06-.01.09l-.03,2.47c-.05.53-.05,1.08-.13,1.6-.11,1.06-.35,2.09-.73,3.03-.18.48-.44.89-.72,1.26-.15.17-.3.36-.48.48-.08.07-.17.14-.26.19-.05.03-.08.06-.14.09l-.32.12c-.23.27-.41.46-.55.57-.1.02-.07.18-.13.29-.03.12-.07.25-.14.42.09.26.22.6.28.8,1.48,5.04,1.57,10.52,1.13,15.84-.47,5.35-1.51,10.66-2.98,15.84-1.26,4.31-2.81,8.56-4.99,12.5-2.05,3.69-4.44,7.26-7.59,10.1-1.06.9-2.09,1.87-3.23,2.7-.43.32-.84.66-1.29.97l-1.35.87c-.88.61-1.83,1.11-2.75,1.66-.28.17-.57.34-.86.5l-3.09,1.4c-1.05.41-2.08.87-3.12,1.33-.9.37-1.86.72-2.45,1.24-.38.33-.3.45.36.32.74-.14,1.51-.31,2.27-.53,1.33-.41,2.62-.93,3.9-1.49,1.25-.62,2.53-1.19,3.73-1.91l1.63-.92,1.57-1.03c1.07-.66,2.02-1.48,3.01-2.26.8-.66,1.58-1.41,2.39-2.09.72-.66,1.38-1.37,2.07-2.06.67-.71,1.26-1.49,1.88-2.25.16-.2.32-.41.47-.6,1.54-1.84,2.78-3.97,3.92-6.1.42-.82.92-1.63,1.3-2.48.39-.85.76-1.71,1.1-2.58.06-.16.12-.32.19-.47.54-1.17,1.01-2.43,1.41-3.66.45-1.36.91-2.73,1.24-4.12.37-1.39.72-2.78,1.01-4.19.81-3.49,1.48-7.04,1.72-10.63.1-1.01.13-2.03.2-3.04.05-.9.05-1.81.09-2.72,0-.91,0-1.82-.06-2.73-.1-1.41-.23-2.82-.46-4.22-.1-.7-.25-1.4-.4-2.1-.09-.35-.16-.7-.26-1.05l-.15-.52c-.03-.09-.03-.07-.04-.11,0-.03-.05-.09-.03-.1.03,0,.07-.02.1-.04h.03l.09-.06.31-.19c.19-.14.38-.29.55-.44.34-.32.61-.67.85-1.04.46-.74.76-1.52.98-2.3.43-1.56.53-3.13.52-4.67-.16-.62.17-.41,1.51-.45h3.3c2.97-.01,5.95-.07,8.92-.15l8.78-.19,1.85-.04c.32-.1.15.25.18.43,0,.14,0,.61.03.97.1,1.51.51,3.01,1.17,4.36.53,1.13,1.26,2.17,2.12,3.07.17.19.39.39.56.5.33.21.84.55.96.43.11-.11-.21-.48-.42-.78v.03Z" fill="#1c1f58"/><path d="M107.54,49.9l1.1,7.2c.44-7.07,1.92-14.03,4.4-20.66-2.56,4.15-4.42,8.7-5.5,13.46Z" fill="#84dd3e"/><path d="M107.94,49.71c.09-.09.2-.16.26-.28.46-.81.86-1.62,1.14-2.49.12-.4.29-.79.46-1.18.29-.66.55-1.33.79-2,.84-2.38,1.9-4.69,3.12-6.92l-1.4-.69c-.17.58-.36,1.15-.52,1.74-.97,3.49-1.76,7.01-2.4,10.56-.27,1.48-.44,2.98-.66,4.47-.2,1.38-.2,2.77-.42,4.15l.67-.03v-.09c-.03-.47-.07-.94-.13-1.41-.1-.71-.11-1.44-.26-2.15-.02-.11-.05-.22-.05-.33-.05-.76-.1-1.52-.36-2.25-.11-.31-.19-.65-.53-.84-.22-.12-.35-.09-.4.14-.06.26-.1.53-.1.79.01.92.23,1.82.35,2.72.11.81.18,1.63.34,2.43.06.33.09.69.11,1.03v.1l1.43-.06c.11-.59.19-1.18.24-1.78,0-.08,0-.17.02-.24.25-.75.23-1.54.38-2.31.11-.59.28-1.17.29-1.78,0-.05.02-.11.04-.16.17-.39.19-.82.28-1.24.2-.9.31-1.83.5-2.74.26-1.13.57-2.25.79-3.39.06-.32.15-.64.23-.95.14-.57.35-1.11.5-1.68.35-1.39.79-2.76,1.22-4.14l-1.54-.75c-.3.55-.58,1.12-.82,1.69-.29.68-.69,1.31-1.03,1.97-.46.89-.85,1.82-1.17,2.77-.65,1.86-1.28,3.73-1.67,5.65-.09.4-.18.79-.25,1.19-.02.08-.04.18,0,.25.06.14.05.35.22.39.15.04.27-.1.37-.2l-.04.04Z" fill="#1c1f58"/><path d="M149.84,29.4c5.88-9.21,12.77-17.74,20.54-25.42-26.76-10.28-48.34,8.33-57.33,32.46,6.37-9.69,17.3-13.45,36.79-7.04h0Z" fill="#aee865"/><path d="M149.03,28.79c-.34-.17-.63-.35-1.03-.51-2.9-1.17-5.96-2.07-9.19-2.55-.75-.09-1.49-.23-2.23-.31-.75-.07-1.5-.13-2.24-.2-2.58-.12-5.22-.05-7.77.54-2.93.66-5.76,1.87-8.21,3.64-2.45,1.76-4.48,4.04-6.07,6.54l1.61.81c1.74-4.78,3.93-9.41,6.67-13.71,3.24-5.12,7.25-9.8,12.07-13.52,4.8-3.72,10.43-6.44,16.43-7.54,5-.89,10.21-.81,15.16.42,1.18.25,2.32.62,3.48.94l1.5.51.64.22c-.11.15-.31.33-.47.5-1.63,1.68-3.25,3.36-4.89,5.05-1.1,1.16-2.2,2.36-3.25,3.59-1.61,1.88-3.24,3.74-4.7,5.74-.23.31-.45.62-.69.92-1.61,2.04-3.19,4.13-4.51,6.37-.57.96-1.19,1.97-1.37,2.82-.12.54.03.57.51,0,.54-.66,1.09-1.35,1.61-2.06,1.83-2.51,3.59-5.11,5.5-7.57,1.71-2.2,3.51-4.33,5.31-6.47.74-.89,1.56-1.77,2.37-2.62,1.57-1.61,3.14-3.21,4.72-4.82.33-.33.64-.67.98-.98l.63-.59.32-.3.04-.04-.05-.02-.1-.04-.2-.08-1.68-.63-1.37-.5c-.32-.13-.65-.22-.98-.32l-1.99-.57-2.02-.48c-2.07-.45-4.2-.84-6.36-.84-.19,0-.39-.02-.58-.04-1.48-.16-3.02-.07-4.52.06-3.31.25-6.56,1.06-9.68,2.21-3.87,1.46-7.57,3.46-10.79,6.05-.92.7-1.8,1.47-2.68,2.22-1.52,1.39-3.05,2.8-4.39,4.37-4.75,5.43-8.49,11.71-11.07,18.36-.36.94-.73,1.89-1.09,2.84l1.19.6c.43-.59.85-1.18,1.28-1.76.48-.54.94-1.11,1.43-1.63,2.27-2.36,5.05-4.2,8.14-5.32,3.05-1.09,6.36-1.43,9.63-1.36,3.29.08,6.56.64,9.78,1.35,1.34.31,2.67.64,3.98,1.05.27.08.58.17.81.2.43.04,1.1.2,1.18.04.07-.14-.44-.38-.82-.58h.02Z" fill="#1c1f58"/><path d="M95.9,45.04c-8.65,13.84-12.24,25.16-12.2,38.11,1.51-2.6,3.3-5.05,5.28-7.33,7.99-8.62,17.33-15.9,27.66-21.54-1.09-5.87-3.37-27.54,16.5-45.67-.06-.03-20.64,10.45-37.25,36.42h0Z" fill="#aee865"/><path d="M96.88,44.23c.32-.36.62-.65.96-1.09.6-.78,1.19-1.57,1.79-2.35.62-.77,1.25-1.54,1.88-2.31,1.22-1.57,2.52-3.09,3.81-4.66,1.15-1.47,2.47-2.8,3.7-4.17,1.08-1.17,2.23-2.28,3.32-3.43,1.14-1.11,2.27-2.22,3.4-3.32,2.74-2.55,5.57-5.01,8.53-7.29,1.49-1.13,3-2.24,4.55-3.28.78-.52,1.56-1.03,2.35-1.52.39-.25.79-.48,1.19-.72.2-.12.4-.23.6-.34l.3-.17.06-.03s-.11.04-.18.04-.15-.01-.22-.04c-.03-.02-.07-.03-.1-.05l-.04-.03c-.04.07.06-.18.13-.34.07-.17.15-.33.24-.49l-.6-.67c-4.71,4.38-8.75,9.53-11.6,15.29-3.59,7.07-5.39,14.99-5.38,22.88-.01,1.97.13,3.95.37,5.91.07.49.12.98.21,1.47l.09.51c.05.1-.07.12-.13.16l-.21.12c-.76.43-1.68.95-2.5,1.45-3.38,2-6.64,4.2-9.8,6.54-5.26,3.93-10.12,8.37-14.64,13.15-1.03,1.13-1.98,2.32-2.88,3.55-.5.69-.77,1.08-1.08,1.56-.31.47-.61.96-.9,1.46l-.06.1-.03.05v-1.59c.01-.3.04-.59.05-.89l.06-1c.12-1.56.3-3.12.55-4.66.36-1.99.75-4.01,1.29-5.98.79-3.03,1.89-5.95,3.05-8.86.18-.45.37-.9.56-1.33,1.38-2.99,2.97-5.87,4.48-8.79.64-1.27,1.41-2.55,1.68-3.6.18-.67.03-.69-.54.09-.64.87-1.31,1.79-1.9,2.76-2.11,3.4-3.89,7.05-5.44,10.76-1.39,3.32-2.57,6.75-3.33,10.3-.32,1.46-.62,2.99-.89,4.49l-.32,2.08-.23,2.09c-.04.35-.05.7-.08,1.05-.03.57-.08,1.22-.09,1.78-.02,1.17-.04,2.35-.06,3.52v.91c0,.3-.02.66,0,.83v.06c.84-1.35,1.68-2.69,2.52-4.04l.66-.99.62-.88.75-1.02c1.03-1.35,2.06-2.65,3.27-3.84,1.83-1.87,3.79-3.66,5.69-5.5.17-.16.36-.32.54-.47,1.43-1.14,2.84-2.39,4.28-3.53,3.19-2.51,6.46-4.95,9.91-7.12,1.08-.68,2.16-1.34,3.27-1.97.55-.32,1.1-.64,1.66-.94l1.21-.67.42-.23c.06-.04.16-.07.19-.13l-.04-.24-.16-.95-.1-.63c-.03-.15-.05-.31-.07-.46l-.12-.93c-.09-.62-.12-1.25-.18-1.87-.08-1.25-.16-2.51-.16-3.77-.04-1.42.08-2.84.18-4.25.15-1.26.26-2.52.53-3.76l.35-1.87.45-1.85c2.11-8.6,6.72-16.54,12.88-22.95.73-.74,1.45-1.48,2.18-2.22l.88-.89-1.03-.2c-.18-.03-.43-.04-.64.03-.27.09-.26.12-.33.15l-.36.19-.71.4c-.47.26-.94.54-1.4.82-.93.55-1.83,1.15-2.73,1.73-3.6,2.43-7.01,5.14-10.23,8.04-3.18,2.84-6.16,5.91-9.04,9.05-1.39,1.62-2.83,3.19-4.13,4.88l-1.99,2.5-1.87,2.59c-1.07,1.41-2.03,2.89-3,4.36-.2.3-.43.65-.55.91-.23.5-.68,1.25-.55,1.37.11.1.58-.43.94-.84l.04.03Z" fill="#1c1f58"/><path d="M87.96,65.35c.19.07.34.16.55.2.6.2,1.22.39,1.56.73.18.15.28.32.34.48.03.03.04.08.04.13,0,0,.06.2.05.37,0,.08-.04.22-.1.37l-.15.43c-.11.3-.17.54-.33.9l.33.33c.14.13.13.14.2.22s.1.12.12.16c.03.05.05.08.05.1.01.05,0,.08-.02.1,0,.01-.03,0-.02.02l.12.07c.09.05.17.11.25.18l.48.39.85-.91.79-.8,1.29-1.29c1.97-1.95,4.1-3.76,6.3-5.48,1.1-.86,2.22-1.69,3.37-2.5l1.73-1.2.87-.59.5-.33c.22-.17.56-.25.54-.59l.15-.76.13-.57c.1-.38.2-.75.33-1.12.25-.73.58-1.43.99-2.08.41-.65.91-1.26,1.45-1.84.27-.29.55-.57.84-.85l.44-.41.6-.54-.04-.77v-.57c-.02-.38,0-.77.01-1.15.03-.77.08-1.54.17-2.3.15-1.53.4-3.06.73-4.58.56-2.58,1.21-5.16,2.18-7.63.87-2.34,1.76-4.68,2.98-6.87.38-.73.84-1.43,1.23-2.17l.95-1.65c.35-.53.69-1.07,1-1.63.09-.17.19-.34.3-.51.72-1.13,1.55-2.18,2.18-3.37.27-.51.58-1.03.57-1.56,0-.34-.13-.4-.42-.12-.33.31-.65.64-.94,1-.51.64-.98,1.31-1.43,1.99l-1.28,2.1c-.8,1.23-1.53,2.5-2.19,3.81-.27.54-.61,1.08-.9,1.63-.54,1-1.1,1.99-1.54,3.05-.06.14-.1.29-.17.41-.72,1.22-1.16,2.59-1.66,3.91-.42,1.01-.82,2.04-1.06,3.12-.02.1-.06.19-.1.28-.35.69-.45,1.48-.67,2.22-.47,1.64-.71,3.33-.98,5.02-.14,1.01-.28,2.03-.36,3.05-.05.51-.06,1.03-.08,1.55,0,.47.01,1.26.03,1.06h0v.03l-.14.13-.33.31-.66.63c-.77.78-1.57,1.6-2.16,2.6-.52.87-.92,1.8-1.2,2.74-.14.47-.26.94-.36,1.41q-.03.16-.03.18s0,.04-.01.05l-.04.03-.26.17c-1.56,1.01-3.08,2.07-4.52,3.23-1.01.82-2.11,1.54-3.14,2.34-1.4,1.08-2.74,2.24-4.01,3.47l-1.32,1.3-.73.79-.59.66-.15.18s.05-.08.06-.12c.06-.11.12-.23.17-.36.1-.25.17-.53.17-.84-.03-.22,0-.34-.23-.8-.2-.37-.51-.68-.85-.88-.7-.46-1.48-.53-2.22-.61-.15,0-.33,0-.45.03-.23.08-.59.11-.6.29,0,.15.28.25.48.33l-.03.07Z" fill="#1c1f58"/><path d="M116.73,20.22c-.1.07-.22.11-.3.2-.57.65-1.06,1.34-1.42,2.11-.17.35-.36.7-.56,1.03-.33.58-.63,1.18-.89,1.79-1.13,2.67-2.34,5.3-3.57,7.92-1.38,2.95-2.95,5.84-4.89,8.46-.81,1.08-1.64,2.18-2.66,3.05-.49.39-.97.8-1.51,1.03-.27.09-.52.16-.75.06-.24-.08-.37-.3-.43-.55-.09-.35-.12-.74-.12-1.15-.02-.62.15-1.24.18-1.88,0-.1.02-.2.04-.29.16-.66.38-1.3.39-2,.01-.3.06-.61-.19-.9-.16-.19-.29-.21-.42-.03-.15.2-.29.41-.38.63-.33.79-.41,1.66-.56,2.51-.11.77-.24,1.55-.13,2.39.06.35.09.72.22,1.13.03.18.21.4.31.6.14.19.34.35.54.48.23.07.46.21.71.18h.38c.12,0,.21-.05.31-.07.1-.03.21-.08.31-.09.95-.19,1.5-.83,2.11-1.3.47-.38.93-.76,1.26-1.24.03-.04.07-.08.11-.11.34-.23.58-.58.84-.89.59-.67,1.05-1.43,1.56-2.14.63-.9,1.28-1.79,1.78-2.76.14-.27.31-.53.46-.8.28-.47.59-.92.84-1.41.87-1.71,1.79-3.38,2.46-5.17.23-.63.6-1.2.9-1.8.41-.81.79-1.64,1.12-2.48.66-1.66,1.41-3.28,2.02-4.96l.41-1.03c.03-.07.06-.15.05-.22-.03-.14,0-.32-.16-.4-.14-.07-.28.03-.39.11h.02Z" fill="#1c1f58"/><path d="M120.68,26.73c.23-.07.44-.11.67-.22,1.66-.83,3.44-1.32,5.25-1.82.85-.19,1.69-.38,2.56-.43l1.11-.11,1.12-.04c.74-.05,1.49-.04,2.23-.04,1.92.02,3.85.17,5.76.5.96.16,1.91.35,2.85.58.24.05.47.12.71.18l.35.09.18.05.28.09,1.19.37c.42.14.89.32,1.26.42-.03-.68-.12-1.46-.06-2.04l.04-.43.04-.21c.02-.14.07-.27.11-.4.17-.52.45-.92.85-1.14.41-.21.94-.34,1.54-.23.29,0,.6.1.9.17.15.04.3.06.46.13l.63.24.82.31.52-.72.74-1.04,1.3-1.78c.88-1.18,1.79-2.34,2.7-3.5l2.78-3.44,1.42-1.7.84-.99.47-.55.24-.27c.08-.09.19-.19.11-.23-.53-.13-1.14-.24-1.63-.49-.4-.2-.65-.42-.92-.7-.51-.55-.82-1.29-.88-2.04,0-.22-.02-.37.02-.69.06-.29.12-.59.21-.87,0-.09-.13-.1-.23-.12l-.31-.07c-.21-.05-.41-.07-.62-.11-.44-.08-.74-.09-1.09-.13-.69-.05-1.37-.09-2.06-.08-1.37,0-2.74.13-4.1.28-3,.37-5.86,1.34-8.7,2.29-.95.28-1.87.69-2.79,1.09-1.42.58-2.78,1.28-4.13,2.01-.2.13-.4.26-.61.37-1.41.77-2.85,1.53-4.07,2.59-.53.44-1.12.88-1.36,1.41-.15.34-.04.43.39.24.48-.21.98-.45,1.44-.73,1.62-1.01,3.24-2.03,4.89-2.99,1.52-.78,3.04-1.55,4.6-2.24.32-.15.65-.3.98-.44.34-.11.69-.23,1.03-.34.63-.19,1.25-.42,1.88-.6.63-.17,1.26-.36,1.89-.56.16-.05.33-.12.49-.14,1.61-.21,3.18-.68,4.79-.81.62-.06,1.24-.1,1.86-.1.62-.02,1.23-.04,1.86-.07.11,0,.23,0,.33.02.42.09.85.11,1.27.16l.63.07s.07.01.09.02h0c0,.08-.03-.24,0,.59.04.57.18,1.14.42,1.66s.57,1,.97,1.4c.2.2.42.39.65.55l.37.24h.02s.02-.02-.1.11l-.92,1.07c-.7.82-1.39,1.65-2.06,2.51l-1.33,1.64c-.79.97-1.62,1.91-2.38,2.91l-1.98,2.64-.45.62s-.04.08-.06.1l-.14-.04c-.27-.11-.56-.2-.86-.27-.58-.16-1.21-.26-1.88-.23-.66.03-1.39.21-2,.65-.59.44-1,1.06-1.23,1.68-.1.31-.19.62-.23.93-.04.2-.02.17-.03.25v.16l.02.23c0,.07-.1,0-.14,0l-.21-.06-.68-.2c-.66-.2-1.33-.37-1.99-.54-2.06-.49-4.17-.78-6.28-.86-2.08-.09-4.18-.04-6.24.29-1.04.12-2.05.41-3.07.65-.5.15-.99.35-1.48.52l-.73.27c-.24.11-.47.24-.7.36l-1.16.59c-.39.19-.72.48-1.09.71-.15.1-.32.21-.41.33-.17.22-.5.49-.41.64.08.13.42.01.67-.07v-.06Z" fill="#1c1f58"/><path d="M127.85,14.69c.11,0,.22.01.32-.02.71-.25,1.37-.51,1.98-.86.28-.17.59-.28.89-.4.53-.18,1.04-.38,1.55-.58,1.11-.44,2.3-.71,3.5-.82.6-.06,1.21-.07,1.82-.04l.45.02.34.03c.2.02.26.02.41.08.16.07.18.26.11.39-.06.15-.16.26-.43.51-.5.46-1.09.88-1.69,1.28-1.2.8-2.48,1.51-3.78,2.18-1.08.56-2.15,1.16-3.27,1.66-1.05.47-2.02,1.11-3.12,1.5-.36.13-.72.28-1.07.45-.53.26-1.1.44-1.6.76-.08.05-.16.1-.24.13-.58.24-1.16.48-1.63.91-.2.19-.43.36-.44.72,0,.23.08.34.27.33.22-.02.44-.05.64-.13.7-.25,1.31-.68,1.97-1.01.59-.29,1.21-.55,1.78-.88.24-.14.51-.24.77-.33.49-.17.98-.35,1.44-.59.06-.03.12-.08.18-.09.65-.11,1.19-.5,1.78-.74.46-.18.95-.33,1.36-.63.04-.03.08-.04.13-.05.36-.05.65-.26.98-.4.71-.3,1.36-.72,2.06-1.08.86-.44,1.75-.87,2.56-1.45.24-.16.47-.31.7-.47.42-.3.86-.53,1.29-.93l.29-.28.38-.45c.14-.14.21-.31.29-.47.04-.08.09-.16.12-.24l.05-.25c.08-.33.02-.7-.16-.99-.17-.29-.45-.51-.76-.69-.35-.13-.71-.3-.97-.32l-.43-.07c-.13-.01-.23-.01-.35-.02-.45-.03-.9,0-1.34.02-.62.07-1.25.02-1.87.09-.84.07-1.68.26-2.46.56-1.55.56-3.05,1.3-4.31,2.35-.26.22-.53.42-.77.66-.05.05-.11.1-.12.17-.02.13-.12.27,0,.41.1.12.26.1.38.09l.02-.02Z" fill="#1c1f58"/><path d="M73.44,318.76c1.31-16.51,4.25-32.86,8.76-48.8-26.82,7.65-52.44,16.22-72.87,27.95,0,0-8.45,28.11-8.53,49.24,17.35-14.36,43.26-21.74,72.65-28.39h-.01Z" fill="#aee865"/><path d="M71.74,318.79c-.65.08-1.22.12-1.97.26-5.3.97-10.66,2.07-16.05,3.51-2.49.64-4.97,1.33-7.43,1.98-4.23,1.19-8.46,2.47-12.56,3.97-8.96,3.23-17.76,7.14-25.81,12.35-1.03.61-1.97,1.36-2.97,2.03-.49.35-.99.68-1.46,1.04l-1.38,1.09-.32.26-.08.07s0-.05-.02-.07v-1.14c0-.59.03-1.17.07-1.76.2-4.7.76-9.39,1.43-14.07.77-5.26,1.75-10.49,2.89-15.7.56-2.6,1.18-5.2,1.83-7.78l1-3.87.53-1.93.23-.82c.04-.09.16-.11.25-.17l.43-.24c9.24-5.32,19.03-9.66,28.97-13.54,8.33-3.21,16.76-6.15,25.3-8.77l8.81-2.69,4.42-1.31,3.95-1.14-1.7,6.12c-.73,2.68-1.4,5.43-2.02,8.17-.93,4.2-1.85,8.39-2.5,12.66-.1.65-.21,1.32-.31,1.97-.77,4.46-1.43,8.95-1.75,13.45-.13,1.94-.29,3.98-.1,5.42.12.92.26.84.46-.45.21-1.45.44-2.97.63-4.5.67-5.38,1.33-10.8,2.24-16.16.83-4.79,1.82-9.55,2.87-14.31.44-1.97.95-4,1.49-5.98.75-2.65,1.49-5.3,2.24-7.96-1.89.54-3.8,1.09-5.71,1.63-.48.14-.97.3-1.42.41-4.52,1.13-9.04,2.61-13.53,3.98-3.46,1.05-6.96,2.12-10.39,3.37-.3.11-.63.22-.94.31-2.42.71-4.86,1.63-7.25,2.49-5.29,1.89-10.5,4.03-15.68,6.26-6.46,2.8-12.86,5.84-18.97,9.39l-1,.57c-.09.21-.14.46-.21.68l-.13.44-.4,1.44-.78,2.87c-.89,3.42-1.79,6.85-2.53,10.31-1.31,6.05-2.46,12.14-3.26,18.29-.39,3.07-.73,6.16-.91,9.26l-.13,2.32c-.03.39-.02.78-.03,1.16l-.02,1.42-.04,1.95-.02.96v.36s0,.1.04.04l.39-.31,2.88-2.29c3.35-2.67,7.03-5,10.83-7.04,5.12-2.81,10.48-5.22,15.92-7.37,10.73-4.25,21.94-7.28,33.14-10.15l7-1.7c.48-.11,1.04-.24,1.4-.37.7-.25,1.85-.56,1.86-.74,0-.16-.96-.03-1.68.07h-.04Z" fill="#1c1f58"/><path d="M71.74,318.79c-.65.08-1.22.12-1.97.26-5.3.97-10.66,2.07-16.05,3.51-2.49.64-4.97,1.33-7.43,1.98-4.23,1.19-8.46,2.47-12.56,3.97-8.96,3.23-17.76,7.14-25.81,12.35-1.03.61-1.97,1.36-2.97,2.03-.49.35-.99.68-1.46,1.04l-1.38,1.09-.32.26-.08.07s0-.05-.02-.07v-1.14c0-.59.03-1.17.07-1.76.2-4.7.76-9.39,1.43-14.07.77-5.26,1.75-10.49,2.89-15.7.56-2.6,1.18-5.2,1.83-7.78l1-3.87.53-1.93.23-.82c.04-.09.16-.11.25-.17l.43-.24c9.24-5.32,19.03-9.66,28.97-13.54,8.33-3.21,16.76-6.15,25.3-8.77l8.81-2.69,4.42-1.31,3.95-1.14-1.7,6.12c-.73,2.68-1.4,5.43-2.02,8.17-.93,4.2-1.85,8.39-2.5,12.66-.1.65-.21,1.32-.31,1.97-.77,4.46-1.43,8.95-1.75,13.45-.13,1.94-.29,3.98-.1,5.42.12.92.26.84.46-.45.21-1.45.44-2.97.63-4.5.67-5.38,1.33-10.8,2.24-16.16.83-4.79,1.82-9.55,2.87-14.31.44-1.97.95-4,1.49-5.98.75-2.65,1.49-5.3,2.24-7.96-1.89.54-3.8,1.09-5.71,1.63-.48.14-.97.3-1.42.41-4.52,1.13-9.04,2.61-13.53,3.98-3.46,1.05-6.96,2.12-10.39,3.37-.3.11-.63.22-.94.31-2.42.71-4.86,1.63-7.25,2.49-5.29,1.89-10.5,4.03-15.68,6.26-6.46,2.8-12.86,5.84-18.97,9.39l-1,.57c-.09.21-.14.46-.21.68l-.13.44-.4,1.44-.78,2.87c-.89,3.42-1.79,6.85-2.53,10.31-1.31,6.05-2.46,12.14-3.26,18.29-.39,3.07-.73,6.16-.91,9.26l-.13,2.32c-.03.39-.02.78-.03,1.16l-.02,1.42-.04,1.95-.02.96v.36s0,.1.04.04l.39-.31,2.88-2.29c3.35-2.67,7.03-5,10.83-7.04,5.12-2.81,10.48-5.22,15.92-7.37,10.73-4.25,21.94-7.28,33.14-10.15l7-1.7c.48-.11,1.04-.24,1.4-.37.7-.25,1.85-.56,1.86-.74,0-.16-.96-.03-1.68.07h-.04Z" fill="#1c1f58"/><path d="M66.12,278.11c-.51.02-.96.01-1.55.07-4.15.6-8.26,1.7-12.34,3.08-1.88.64-3.75,1.29-5.6,1.95-3.18,1.15-6.35,2.39-9.43,3.72-2.69,1.15-5.36,2.35-8.02,3.56l-3.98,1.85-4.39,2.11c-.04.25-.08.51-.13.76l-.06.25-.05.18c-.06.24-.15.47-.23.71-.17.47-.39.94-.62,1.4-.47.92-1.04,1.8-1.67,2.64-1.26,1.68-2.8,3.17-4.45,4.53-.84.66-1.69,1.31-2.59,1.9l-.33.23c-.19.14-.42.26-.57.42l-.33,1.07c-.13.55-.26,1.1-.36,1.65-.42,2.18-.74,4.35-1.06,6.52l-.93,6.97c-.3,2.45-.6,4.91-.9,7.37.34.14.67.29,1,.44.25.12.43.22.65.33.42.23.82.49,1.21.77s.76.58,1.11.91l.26.25.3.3.71.79,1.87-1.18c.51-.32,1-.67,1.53-.96l3.21-1.71,3.31-1.53,3.37-1.4c4.53-1.79,9.16-3.34,13.84-4.76,6.58-1.97,13.21-3.76,19.93-5.24l2.37-.52.59-.13.35-.07c.12-.04.28,0,.33-.15l.42-.54.39-.45c1.06-1.18,2.33-2.17,3.75-2.89.71-.36,1.45-.66,2.21-.88l.62-.16c.23-.07.53-.08.71-.2l.2-1.38.76-4.81c.35-2.11.69-4.25,1.01-6.39.49-3.27,1.06-6.52,1.49-9.8.07-.5.13-1.01.22-1.52l.42-2.57.25-1.64c.06-.33.08-.63.12-.94l.05-.46v-.12s.03-.09,0-.06l-.17.07c-.46.17-1.2.44-1.83.6-.19.06-.26.05-.35.06-.09,0-.18.02-.27.01-.18-.02-.37,0-.54-.06-.72-.14-1.37-.57-1.95-1.12-.97-.99-1.67-2.39-2.31-3.3-.44-.58-.55-.48-.25.51.32,1.11.81,2.26,1.61,3.26.69.87,1.7,1.66,2.95,1.85.31.04.62.06.92.03.2,0,.21-.02.27-.03.06,0,.12-.02.17-.04.11-.03.21-.08.32-.13.02,0,.06-.04.07-.03v.09l-.04.17c-.27,1.85-.53,3.71-.8,5.56-.56,3.71-1.14,7.42-1.65,11.14-.21,1.54-.47,3.14-.73,4.7l-.71,4.3-.16,1.02c-.02.1-.01.21-.14.2h-.07l-.26.08c-.19.05-.37.1-.56.16-.37.11-.73.25-1.09.4-.37.16-.75.35-1.1.51-1.73.8-3.29,2.03-4.51,3.53-.21.26-.15.2-.2.24l-.38.08-1.33.29-2.66.59c-2.72.59-5.48,1.18-8.19,1.96-.24.07-.5.13-.74.18-1.91.37-3.83.96-5.72,1.47-4.17,1.14-8.31,2.46-12.42,3.89-5.13,1.78-10.25,3.71-15.07,6.39l-1,.54-.97.62-1.17.74h0l-.04-.04-.23-.23-.29-.27c-.39-.36-.8-.7-1.22-1.02-.43-.32-.87-.61-1.34-.87-.22-.12-.51-.27-.67-.36l-.04-.02.18-1.46c.57-4.7,1.2-9.41,1.93-14.08.19-1.17.38-2.33.59-3.48.11-.57.22-1.15.35-1.7.06-.28.13-.56.21-.8.01-.04.01-.09.04-.11l.04-.03.11-.08c2.02-1.33,3.91-2.87,5.59-4.63,1.12-1.2,2.17-2.47,3.08-3.87.46-.69.85-1.43,1.21-2.19.17-.39.33-.78.47-1.18.07-.2.13-.41.19-.62l.05-.18.02-.11s.09-.05.14-.07l6.06-2.83c2.06-.93,4.12-1.87,6.17-2.8,8.13-3.61,16.41-6.96,24.91-9.52,1.76-.54,3.55-.96,5.34-1.36.37-.07.8-.14,1.08-.23.54-.18,1.44-.38,1.45-.56.01-.15-.74-.12-1.31-.09h0Z" fill="#1c1f58"/><path d="M26.57,311.17c-.01-.2-.01-.37,0-.59-.14-1.52.36-2.97,1.05-4.41.16-.33.32-.66.53-.97.2-.31.4-.63.64-.91.76-1.03,1.65-1.98,2.56-2.89,1.99-2.01,4.39-3.64,6.92-4.97,2.56-1.29,5.3-2.25,8.13-2.63,1.58-.19,3.22-.2,4.73.22,1.48.42,2.91,1.28,3.52,2.7.68,1.38.48,3.08-.07,4.57-.55,1.52-1.46,2.91-2.52,4.16-1.77,2.08-3.91,3.9-6.3,5.28-2.25,1.29-4.59,2.51-7.15,3.05-.84.18-1.69.33-2.53.46-1.3.17-2.61.14-3.89.08-.2-.02-.4-.04-.59-.07-1.33-.26-2.55-.75-3.64-1.43-.23-.15-.43-.35-.67-.5-.21-.17-.41-.34-.66-.44-.33-.13-.44-.06-.27.35.17.48.48.91.84,1.31,1.39,1.31,3.29,1.74,5.03,1.91,1.58.14,3.17.05,4.71-.26.64-.13,1.29-.26,1.94-.39.6-.12,1.18-.29,1.76-.45.57-.19,1.15-.39,1.71-.63.14-.07.29-.15.43-.19,1.46-.41,2.74-1.26,4.06-1.99,1-.59,2.02-1.2,2.89-2.01.08-.07.17-.14.26-.19.71-.42,1.29-1.05,1.9-1.6,1.32-1.27,2.44-2.77,3.34-4.43.54-1.05,1.01-2.18,1.23-3.41.2-1.23.1-2.62-.5-3.82-.14-.35-.36-.66-.57-.96-.2-.32-.47-.58-.73-.84-.96-.9-2.12-1.5-3.3-1.82-2.08-.49-4.15-.44-6.13-.12s-3.89.93-5.68,1.76l-1.89.86c-.62.32-1.25.6-1.85.95-1.64.9-3.18,2.02-4.56,3.28-1.36,1.25-2.63,2.61-3.67,4.16-1.02,1.54-1.9,3.27-2.04,5.18l-.04.59c0,.2.03.4.04.59,0,.4.13.78.22,1.17.03.16.11.33.2.43.18.19.37.52.53.45.14-.06.1-.37.08-.59h0Z" fill="#1c1f58"/><path d="M470.28,159.68c-.6-.82-1.17-1.64-1.7-2.48-11.24,1.24-19.22,14.86-31.92-1.88.22.63-.22-.63,0,0,16.61,34.9,34.32,35.35,34.32,35.35l48.21,7.89s-27.25-7.77-48.91-38.88h0Z" fill="#aee865"/><path d="M470.78,160.94c.26.45.45.87.78,1.37,1.17,1.8,2.34,3.62,3.72,5.31,1.34,1.72,2.68,3.47,4.24,5.06,1.4,1.5,2.75,3.04,4.22,4.44,2.45,2.5,5.1,4.83,7.81,6.99,4.09,3.29,8.49,6.18,13.04,8.79,4.58,2.58,9.29,4.85,14.39,6.45l.37-1.63c-4.58-.7-9.15-1.39-13.73-2.09-8.35-1.28-16.71-2.56-25.07-3.84l-6.27-.98-3.13-.5c-1.08-.07-2.05-.33-3.06-.6-3.99-1.25-7.61-3.53-10.84-6.21-5.38-4.53-9.87-10.08-13.58-16.07-1.24-1.97-2.35-4.02-3.55-6.02l-3.19-6.23v.03c-.16-.49.18.49.01,0l-.49.26c1.07,1.39,2.18,2.75,3.42,4,1.57,1.57,3.43,2.99,5.59,3.82,1.65.61,3.46.89,5.21.69,1.76-.17,3.45-.7,5.04-1.39.49-.21.98-.43,1.46-.64,3.3-1.44,6.44-3.13,9.81-4.02.34-.09.77-.19,1.06-.24l.36-.08c.08.08.15.18.23.26.41.5.91,1.08,1.34,1.44.57.48.63.33.12-.56-.14-.25-.29-.5-.44-.76s-.27-.47-.54-.89l-.17-.28c-.06-.09-.1-.22-.23-.17l-.66.07-.54.06c-.16.02-.31.05-.47.08-4.42.78-8.17,3.29-12.09,4.83-1.75.69-3.57,1.19-5.39,1.21s-3.62-.45-5.23-1.34c-1.35-.71-2.61-1.74-3.72-2.86-1.19-1.21-2.26-2.54-3.29-3.91l-1.39.75c.04.1.06.21.12.31-.06-.09-.08-.2-.12-.3-.03-.11-.09-.21-.1-.32.01.1.06.21.1.32v.04l.03.04c.45.89.9,1.78,1.35,2.68.18.35.38.71.53,1.05.38.85.77,1.69,1.18,2.53l1.39,2.45c.94,1.63,1.87,3.26,2.93,4.82.8,1.2,1.51,2.48,2.39,3.64.87,1.17,1.74,2.35,2.66,3.48.17.19.35.41.5.61.62.8,1.28,1.59,1.95,2.37.67.79,1.44,1.48,2.15,2.22,3.17,3.21,6.84,6.01,10.97,8.08.65.31,1.32.59,1.98.88.69.24,1.36.51,2.07.71.7.21,1.42.38,2.18.5l.59.07c.2.02,0,0,.16.02l.26.04,1.03.17c2.74.45,5.49.89,8.24,1.3,1.54.24,3.09.49,4.64.73,2.75.45,5.51.91,8.27,1.36,8.58,1.31,17.16,2.71,25.73,3.95l.34-1.52c-.99-.29-2.02-.64-3.02-1-3.18-1.18-6.26-2.71-9.25-4.36-4.05-2.24-7.94-4.76-11.7-7.45-7.34-5.4-13.96-11.81-19.79-18.84l-.92-1.08-.86-1.13-1.71-2.27c-.23-.31-.5-.67-.72-.89-.42-.42-1.02-1.15-1.18-1.08-.14.06.24.73.53,1.24l-.05.03Z" fill="#1c1f58"/><path d="M523.01,163.49c-32.74,9.54-57.58,11.73-86.35-8.17,19.69,44.77,64.75,54.92,111.58,48.36-12.64-10.22-21.53-24.36-25.23-40.19Z" fill="#aee865"/><path d="M523.1,165.27c.11.68.16,1.29.37,2.07.65,2.79,1.56,5.52,2.59,8.25,1.07,2.71,2.34,5.36,3.79,7.96,1.39,2.36,2.8,4.71,4.39,6.9,2.69,3.82,5.81,7.38,9.22,10.52l1.41,1.28.33.3.07.06.15.12.16.13s.15.11.11.1l-.07.02-1.49.2c-.61.09-1.23.14-1.85.22-1.23.13-2.47.3-3.7.4-4.94.49-9.9.75-14.87.79-9.92.07-19.87-.75-29.55-2.94-10.88-2.43-21.41-6.75-30.57-13.19-9.17-6.41-16.81-14.97-22.35-24.73-.6-1-1.11-2.06-1.68-3.09-.26-.5-.58-1.08-.79-1.51l-.58-1.22-.58-1.23-.15-.31-.07-.15s-.04-.07-.02-.06l.07.04.54.35,2.33,1.5,1.48.96,1.54.87,3.08,1.74c1.01.61,2.11,1.05,3.16,1.59,1.07.5,2.11,1.05,3.2,1.52,8.18,3.54,16.99,5.5,25.88,6.09,1.47.05,2.95.1,4.43.15,1.48.02,2.97-.08,4.46-.12,1.14-.02,2.27-.12,3.4-.22l3.39-.29c2.24-.33,4.51-.57,6.73-1.02.69-.13,1.38-.26,2.06-.39,4.71-.8,9.36-1.9,13.92-3.24,1.95-.61,4.02-1.23,5.37-1.92.87-.45.73-.55-.61-.26-1.51.32-3.09.68-4.66,1.09-5.55,1.33-11.11,2.78-16.75,3.72-1.25.24-2.52.37-3.79.56-1.26.17-2.53.37-3.8.46l-3.81.35-3.83.17c-.53.02-1.06.04-1.6.07-.54,0-1.08-.03-1.62-.04-1.08-.04-2.16-.08-3.23-.11-1.96-.17-3.92-.37-5.88-.61l-2.92-.49c-.97-.16-1.95-.3-2.91-.55-.5-.12-1.03-.22-1.5-.36-2.36-.57-4.65-1.4-6.99-2.12-1.16-.37-2.28-.88-3.43-1.31-1.14-.46-2.29-.87-3.37-1.45-.84-.42-1.69-.83-2.53-1.25-.85-.41-1.69-.83-2.51-1.33-1.63-.97-3.32-1.83-4.94-2.83-.29-.18-.58-.38-.85-.57l-.4-.29-.77-.52-1.64-1.09c-1.12-.73-2.24-1.47-3.36-2.2l-.42-.27-.21-.14c-.06-.05,0,.02,0,.05l.05.11.4.85.79,1.69c.52,1.12,1.05,2.25,1.57,3.36l.43.93.22.46c.08.18.1.19.15.29l.52.99,1.04,1.98c.69,1.33,1.51,2.58,2.27,3.87.77,1.28,1.65,2.5,2.47,3.75.85,1.23,1.78,2.41,2.67,3.62,4.63,5.87,10.03,11.22,16.23,15.44.86.6,1.72,1.21,2.63,1.76.9.55,1.77,1.15,2.69,1.67,3.24,1.91,6.6,3.61,10.05,5.09,6.08,2.49,12.4,4.35,18.82,5.64,6.42,1.27,12.95,1.94,19.45,2.13,4.57.12,9.19.2,13.79,0,1.55-.06,3.1-.17,4.66-.26l4.65-.4,4.63-.53,2.73-.37,1.79-.24.89-.12c.06,0,.04-.02,0-.05l-.08-.07-.16-.14-.33-.27-2.56-2.13c-.24-.2-.36-.3-.5-.43l-.42-.38-.84-.76c-.57-.5-1.11-1.03-1.65-1.56-.53-.54-1.1-1.04-1.6-1.61-2.11-2.17-4.04-4.52-5.86-6.93-3.61-4.87-6.62-10.18-8.93-15.78-.48-1.16-.94-2.34-1.34-3.53-.44-1.18-.79-2.39-1.16-3.59-.16-.49-.3-1.07-.45-1.45-.28-.73-.63-1.93-.82-1.94-.16,0,0,1,.13,1.77v-.04Z" fill="#1c1f58"/><path d="M528.35,204.96c.23-.21.44-.39.68-.64.85-.91,1.82-1.69,2.86-2.34.52-.33,1.07-.61,1.62-.88.28-.12.56-.25.85-.36.14-.05.28-.12.43-.16l.34-.12c.14-.05.3-.09.45-.14.92-.24,1.87-.45,2.78-.66-.5-.49-1.01-.98-1.51-1.47l-.77-.75-.38-.37-.19-.2c-1.44-1.51-2.76-3.07-4.02-4.67-2.75-3.49-5.01-7.39-6.65-11.54-.41-1.04-.8-2.09-1.13-3.15-.18-.53-.34-1.06-.48-1.61l-.23-.81-.06-.2-.08-.33-.15-.67-.31-1.33c-.05-.21-.09-.46-.16-.63l-.6.42-1.2.84c-.5.29-.58.37-.85.5-.93.5-1.95.82-3,.99-2.36.38-4.88-.17-6.89-1.55-.26-.15-.49-.36-.73-.55-.12-.1-.24-.18-.35-.3l-.4-.4-.25-.24c-.08-.08-.16-.19-.28-.12l-.69.16-.94.22c-1.24.27-2.46.64-3.72.82l-3.78.52c-1.27.13-2.55.16-3.82.25-1.27.11-2.55.07-3.83.06-1.28-.02-2.56,0-3.83-.11l-3.2-.21c-1.07-.07-2.13-.22-3.19-.33-2.13-.2-4.24-.56-6.35-.91-3.96-.74-7.96-1.4-11.84-2.55-1.28-.37-2.58-.74-3.87-1.11-1.98-.56-3.92-1.24-5.89-1.82-.3-.09-.61-.18-.91-.29l-1.56-.57c-.38-.13-1.4-.54-2.1-.74-.11.4-.2.84-.35,1.21-.08.22-.13.32-.18.42-.05.11-.11.2-.16.31-.23.4-.52.75-.87.98-.62.45-1.51.35-2.23.37-.47.03-.52.16.08.48.67.34,1.6.52,2.47.15.64-.27,1.13-.76,1.49-1.29l.24-.41.17-.35c.05-.11.09-.23.12-.34.12,0,.3.09.45.13l1.05.35,2.15.7c2.23.73,4.48,1.43,6.76,2.01.94.26,1.91.53,2.87.8,1.75.52,3.51.98,5.31,1.35.23.05.48.09.7.16,1.07.35,2.19.55,3.31.77s2.24.42,3.36.6c1.72.3,3.45.69,5.22.78.16,0,.32.04.47.07,1.2.24,2.45.38,3.68.46,1.35.12,2.71.21,4.07.28l4.1.04c1.7.04,3.42-.11,5.13-.17,1.71-.09,3.41-.4,5.11-.63.95-.13,1.9-.41,2.84-.6l1.27-.28.56-.12h.01v.02l.12.11c.16.17.33.32.52.47.35.31.72.59,1.12.83,2.74,1.79,6.24,2.24,9.33,1.32.38-.12.76-.26,1.14-.41.36-.18.74-.33,1.08-.53l.25-.15.05-.04s.07-.05.1-.08c.07-.05.16-.18.17.02.04.08.55,2.06,1.04,3.37.7,1.99,1.38,4,2.26,5.93,1.17,2.61,2.64,5.1,4.32,7.41,1.05,1.48,2.21,2.87,3.41,4.22.61.67,1.22,1.33,1.87,1.96l.48.48.3.27c.16.17.44.37.53.52-.27.07-.55.14-.82.24l-.23.08c-.12.04-.24.09-.36.14-.23.1-.47.2-.7.31-.92.44-1.79,1-2.58,1.64-.93.73-1.75,1.6-2.45,2.56-.15.19-.3.43-.37.61-.14.34-.38.87-.24.97.12.09.43-.26.68-.5l-.04.05Z" fill="#1c1f58"/><path d="M506.54,189.45c-.08.17-.21.3-.33.47-.35.65-.92,1.15-1.52,1.61l-.46.34-.51.3c-.32.22-.69.38-1.04.58-.66.34-1.38.61-2.1.82-1.25.36-2.53.67-3.81.9-5.62,1.01-11.65.68-17.08-1.22-1.51-.56-2.98-1.28-4.21-2.28-.31-.24-.57-.54-.85-.81-.22-.31-.5-.59-.65-.94-.21-.32-.29-.68-.41-1.04-.03-.36-.1-.73-.01-1.1.1-.73.46-1.44.99-2.02.5-.61,1.16-1.09,1.83-1.54,1.39-.85,2.95-1.43,4.54-1.86,2.68-.67,5.45-1.03,8.23-.93,2.61.08,5.25.24,7.76.99.82.26,1.65.52,2.46.81,1.24.46,2.41,1.05,3.55,1.69.18.09.34.21.51.32,1.1.81,2.04,1.76,2.71,2.83.3.47.43,1,.74,1.43.21.28.35.28.41-.17.1-.51.02-1.06-.15-1.58-.31-.92-.94-1.64-1.59-2.28-.68-.6-1.42-1.13-2.18-1.58-1.36-.82-2.8-1.47-4.31-1.91-.62-.19-1.26-.39-1.89-.59-1.16-.34-2.34-.62-3.55-.77-.16-.02-.32-.02-.47-.06-1.46-.38-2.99-.33-4.49-.4-.58,0-1.17-.02-1.75-.02-.59.03-1.17.06-1.75.15-.1.02-.21.02-.32.02-.82-.03-1.65.15-2.46.28-1.8.29-3.56.86-5.27,1.64-1.06.5-2.12,1.07-3.06,1.93-.92.83-1.77,2-1.94,3.43-.13.79,0,1.6.25,2.33.48,1.29,1.33,2.29,2.27,3.05,1.67,1.32,3.53,2.18,5.43,2.81s3.85,1.03,5.81,1.2c1.38.12,2.75.31,4.14.37,1.87.09,3.76-.03,5.61-.31,1.82-.28,3.64-.68,5.38-1.32,1.73-.64,3.45-1.5,4.79-2.87.52-.6,1.04-1.23,1.26-2.03.06-.15.13-.34.09-.48-.05-.26-.03-.65-.21-.67-.15-.02-.29.26-.39.45v.03Z" fill="#1c1f58"/><path d="M128.42,415.35c-10.36-3.26-43.94-3.72-67.93,17.01s-20.49,23.01-20.49,23.01c0,0,29.98-23.78,51.97-13.95,10.34-10.97,22.73-19.84,36.46-26.07h-.01Z" fill="#aee865"/><path d="M127.07,415.59c-.5.16-.95.27-1.51.5-4,1.66-7.93,3.64-11.73,6.04-1.75,1.1-3.48,2.23-5.17,3.38-2.91,2-5.72,4.17-8.37,6.47-2.89,2.51-5.65,5.16-8.27,7.93l-.25.26-.03.04s-.03.04-.05.02h-.02l-.26-.11-.69-.27c-.92-.36-1.87-.59-2.81-.86-1.91-.42-3.85-.76-5.8-.81-3.9-.22-7.76.31-11.51,1.18s-7.36,2.19-10.86,3.71c-3.37,1.48-6.63,3.19-9.79,5.05-1.58.93-3.14,1.91-4.67,2.92-.77.51-1.53,1.02-2.28,1.55l-.91.65-.66.49-.45.34-.11.09s-.08.08-.1.02c-.05-.07-.07-.17-.07-.26,0-.36.13-.72.31-1.04.08-.17.17-.34.27-.5l.15-.24c.07-.11.15-.25.23-.37.35-.49.68-.99,1.06-1.46,1.46-1.92,3.14-3.69,4.8-5.46,3.38-3.5,6.99-6.8,10.64-10.03,1.34-1.17,2.66-2.38,4.07-3.46l2.08-1.66c.35-.27.69-.56,1.05-.82l1.11-.74,2.22-1.48c.74-.5,1.47-1,2.26-1.41,1.57-.84,3.08-1.77,4.7-2.53,6.01-2.96,12.38-5.27,18.97-6.57,1.09-.19,2.18-.39,3.28-.58l1.65-.3,1.66-.22c1.69-.23,3.38-.45,5.09-.54l2.55-.19,2.56-.11c.52-.03,1.06-.05,1.58-.06,3.59.06,7.16.28,10.71.64.76.1,1.54.22,2.27.29.73.1,1.4.21,2,.2.76,0,.74-.15-.27-.5-1.12-.43-2.33-.72-3.56-.96-4.33-.8-8.76-.84-13.14-.71-3.92.08-7.83.51-11.72,1.12-1.59.32-3.27.6-4.89.89l-4.45,1.02c-1.47.4-2.93.87-4.39,1.32-.38.12-.77.25-1.14.36-1.78.59-3.57,1.22-5.33,1.95-1.72.81-3.47,1.58-5.17,2.42-1.29.69-2.58,1.39-3.88,2.08-1.3.7-2.49,1.59-3.71,2.42-.21.15-.45.3-.67.43-.44.26-.89.52-1.31.82l-1.23.95c-.82.64-1.63,1.29-2.44,1.93-3.5,2.85-6.78,5.91-10.07,9.01-2.06,1.92-4.07,3.92-6.01,5.99-.96,1.06-1.91,2.11-2.8,3.25-.46.55-.87,1.16-1.29,1.75-.11.14-.21.3-.3.47l-.53.86c-.13.28-.32.59-.4.85l-.26.79c-.2.47-.17.79-.19,1.13-.03.19.04.31.07.45.02.15.09.28.16.41s.18.26.32.38c.09.08.12.08.18.12.14.09.27.18.49.34.67-.54,1.31-1,1.96-1.5l1.45-1.04.86-.59c.58-.39,1.16-.78,1.75-1.15,1.17-.76,2.36-1.48,3.55-2.21,4.17-2.53,8.53-4.75,13.06-6.53,4.52-1.8,9.23-3.11,14.02-3.7,3.37-.4,6.84-.2,10.14.55.56.1,1.11.26,1.66.44.54.18,1.11.3,1.63.53l.8.31.61.24.33.13.17.07c.05.01.12.07.15,0l1.52-1.59c1.61-1.69,3.28-3.33,4.98-4.93,6.72-6.29,14.29-11.68,22.31-16.21l2.53-1.36,2.56-1.3c.35-.17.77-.36,1.02-.53.5-.33,1.34-.77,1.3-.95-.03-.15-.77.1-1.33.28h0Z" fill="#1c1f58"/><path d="M111.8,414.03c-43.27-1.22-106.57,34.5-100.45,98.94,16.67,2.3,33.55,2.59,50.28.9h0c-1.17-4.36-2.26-8.99-3.29-13.91-14.63-69.55,31.62-83.81,53.47-85.93" fill="#aee865"/><path d="M109.57,413.93c-.87.06-1.63.06-2.63.19-7.13.9-14.31,2.82-21.05,6.13-3.11,1.51-6.09,3.3-8.88,5.3-4.84,3.42-9.06,7.77-12.37,12.65-.48.65-.9,1.33-1.3,2.03l-1.23,2.07-1.09,2.15c-.37.71-.73,1.43-1.02,2.18l-.93,2.22c-.32.74-.53,1.51-.8,2.26-.25.76-.53,1.51-.76,2.28l-.62,2.32c-1.6,6.2-2.25,12.59-2.24,18.94,0,6.36.64,12.68,1.67,18.93,1.07,6.25,2.7,12.34,4.18,18.48l.23.95.07.26s-.16.03-.24.05l-2.24.23c-1.76.16-3.52.31-5.28.42-3.52.24-7.05.39-10.59.45-7.07.11-14.15-.13-21.2-.73-1.76-.16-3.52-.32-5.28-.52-.88-.09-1.76-.2-2.64-.31l-1.22-.15c-.13-.03-.31-.01-.41-.08l-.03-.44-.34-5.22v-5.3c.22-7.06,1.32-14.1,3.36-20.87,3.44-11.29,9.32-21.86,17.21-30.68,7.4-8.32,16.13-15.53,25.89-20.95,3.19-1.82,6.54-3.46,9.92-5.02,5.19-2.33,10.54-4.19,16-5.79.84-.24,1.69-.5,2.53-.71,5.8-1.43,11.71-2.37,17.63-2.93,1.28-.09,2.59-.18,3.82-.3,1.23-.05,2.37-.13,3.32-.29,1.21-.19,1.1-.33-.65-.42-.98-.04-1.98-.11-3-.12-1.02.02-2.05.04-3.08.07-7.26.31-14.47,1.81-21.47,3.79-6.25,1.79-12.37,4.09-18.23,6.97-1.23.56-2.43,1.23-3.66,1.86l-1.84.95c-.6.34-1.2.68-1.8,1.02-2.22,1.2-4.35,2.56-6.48,3.92-2.08,1.44-4.19,2.85-6.16,4.46-.52.41-1.05.85-1.56,1.22-4.95,3.78-9.46,8.32-13.52,13.12l-1.19,1.38c-.38.47-.74.96-1.12,1.44-.74.97-1.5,1.92-2.22,2.91-1.36,2.03-2.78,4.03-3.93,6.2-.21.38-.45.77-.68,1.14-1.76,2.89-3.24,6.06-4.54,9.22-2.9,6.95-4.7,14.38-5.52,21.88-.14,1.17-.18,2.35-.28,3.53-.06,1.18-.22,2.35-.19,3.53.01,2.36-.11,4.72.11,7.07l.26,4.1.03.43c.02.06-.03.18.05.18l.22.03.86.11,1.21.16,1.74.22c2.33.27,4.66.51,6.99.69,2.62.21,5.26.4,7.89.53,4.69.23,9.4.37,14.11.27,4.11-.09,8.22-.28,12.32-.6l3.07-.26,1.53-.15,1.29-.12.71-.07.35-.03s.14,0,.15-.04l-.04-.17-1.67-6.94c-2.04-7.91-3.67-15.89-4.45-23.97-.54-5.68-.55-11.46.03-17.16.88-7.67,2.74-15.31,6.31-22.16,1.75-3.37,3.81-6.59,6.3-9.47,2.47-2.89,5.27-5.5,8.32-7.79,6.1-4.59,13.14-7.86,20.47-10.01,3.04-.9,6.15-1.58,9.28-2.09.64-.1,1.39-.2,1.89-.32.95-.22,2.53-.42,2.57-.61.04-.15-1.25-.11-2.23-.07v-.03Z" fill="#1c1f58"/><path d="M80.02,425.13c.22-.1.43-.15.66-.29l1.21-.75,1.26-.66c.81-.49,1.68-.88,2.54-1.32.77-.45,1.63-.7,2.44-1.03,1.43-.5,2.88-.95,4.34-1.34,2.3-.61,4.68-1.01,7.07-1.21,1.2-.09,2.4-.15,3.6-.14.6,0,1.2.01,1.8.04.42.02.55,0,.67.04-.02.05-.04.1-.05.16,0,.02-.02.06-.03.13-.01.06-.02.09-.04.29-.03.31-.02.66.11,1.03.14.36.39.71.71.91.64.41,1.23.42,1.76.43.53,0,1.03-.07,1.52-.16,1.27-.25,2.44-.64,3.63-1.11l-.55-1.01c-5,4.02-10.05,7.99-15.15,11.9l-3.73,2.88c-.06.04-.11.11-.18.12l-.23-.07c-.15-.04-.3-.09-.51-.14-.4-.1-.8-.17-1.2-.24-.81-.13-1.62-.17-2.44-.15-1.08.02-2.15.2-3.18.51-.52.15-1.02.34-1.51.55-.25.1-.49.23-.73.34l-.63.34-1.28-.13-1.38-.11c-1-.09-2.03-.07-3.04-.02-1.55.1-3.11.22-4.63.61-.23.06-.47.12-.7.17-1.61.33-3.21.78-4.66,1.55-.62.33-1.29.67-1.61,1.17-.21.32-.11.42.34.3.51-.14,1.04-.29,1.55-.47,1.8-.63,3.61-1.27,5.48-1.67,1.67-.34,3.38-.51,5.08-.62.71-.05,1.44-.03,2.16.03.44.03.89.08,1.33.13l1.59.19.78-.42.56-.27c.15-.07.31-.15.46-.19,1.5-.4,3.04-.8,4.6-.74.6.02,1.19.11,1.78.21.64.13.96.19,2.24.54.1.05.18-.1.27-.14l.27-.19c.26-.17.51-.34.77-.51l.55-.4c.36-.28.73-.55,1.09-.82,1.62-1.17,3.16-2.45,4.76-3.66,2-1.51,4.02-2.99,5.96-4.58.54-.45,1.11-.87,1.67-1.3.99-.77,2.02-1.5,3.01-2.28l1.42-1.13-.95-1.74c-1.34.52-2.83.98-4.18,1.1-.66.08-1.31-.1-1.29-.2-.03-.08-.11-.15,0-.6l.12-.43.21-.5.4-.96c-.53-.1-1.22-.16-1.75-.19l-.83-.05c-.26-.02-.39,0-.59-.01-1.57,0-3.16-.08-4.74,0-2.13.11-4.27.37-6.34.88-4.09.92-8.09,2.48-11.52,4.91-.35.25-.73.47-1.07.75l-1,.84c-.14.11-.3.24-.38.37-.15.23-.46.54-.35.68.09.12.42-.03.66-.14h.02Z" fill="#1c1f58"/><path d="M29.04,452.32c-.11.14-.24.25-.33.43-.66,1.25-1.22,2.57-1.55,3.99-.15.66-.31,1.32-.46,1.97-.24,1.14-.39,2.32-.34,3.54.03.66.1,1.34.29,2.03.19.68.48,1.41,1.05,2.04.56.63,1.42,1.04,2.21,1.11.8.08,1.52-.07,2.17-.27,2.58-.91,4.49-2.57,6.28-4.27,3.97-3.91,7.2-8.37,10.18-12.98,1.24-1.93,2.36-3.94,3.49-5.93,1.07-1.88,1.91-3.88,2.95-5.78.34-.63.66-1.28.96-1.94.45-1.01.97-1.99,1.33-3.04.06-.16.11-.32.18-.48.48-1.06.95-2.13,1.19-3.27.1-.49.24-1,.07-1.44-.11-.28-.25-.3-.44-.01-.21.32-.42.67-.57,1.03-.57,1.26-.97,2.6-1.51,3.88-.49,1.14-.98,2.28-1.47,3.42-.19.48-.44.95-.69,1.41-.46.84-.93,1.68-1.35,2.55-.05.11-.1.24-.17.34-.7.97-1.16,2.08-1.78,3.1-.47.78-1,1.54-1.4,2.38-.04.07-.09.14-.14.21-.42.49-.71,1.08-1.07,1.61-.79,1.17-1.5,2.4-2.32,3.56-1.02,1.45-2.12,2.84-3.16,4.27-.3.4-.61.79-.93,1.17-.56.69-1.19,1.32-1.77,1.98-2.04,2.32-4.32,4.46-6.84,6.06-.88.54-1.93.87-2.82.81-.6-.02-1.07-.27-1.43-.72-.35-.46-.58-1.1-.7-1.78-.25-1.35-.15-2.82.05-4.26.2-1.44.52-2.88.86-4.31l.48-1.77c.03-.12.08-.26.07-.37-.03-.21.02-.51-.14-.58-.14-.06-.3.15-.43.31h0Z" fill="#1c1f58"/><path d="M11.78,496.31c.23.31.44.6.69.95,1.96,2.47,3.06,5.52,3.17,8.66v1.04l-.04.55-.06,1.1c-.02.07.04.05.09.05h3.84c2.66.01,5.33-.02,7.96-.09l16.21-.46,2.03-.06,1.14-.03.91-.02h.45c.13-.04.38.05.31-.17v-2.79c.05-.65.04-1.31.13-1.95.12-1.3.41-2.56.87-3.7.22-.58.55-1.09.9-1.56.2-.21.39-.43.61-.59.1-.1.23-.15.34-.23.06-.04.11-.06.19-.1.11-.06.25-.11.39-.14l.31-.35c.08-.08.18-.17.25-.22.1-.03.06-.18.13-.3.05-.14.07-.24.14-.42l-.34-.96c-1.85-6.06-2.02-12.65-1.58-19.05.49-6.43,1.66-12.83,3.34-19.08,1.44-5.2,3.25-10.33,5.79-15.1,2.4-4.47,5.24-8.78,8.95-12.28,1.26-1.11,2.47-2.29,3.83-3.31.51-.4,1-.81,1.53-1.19l1.61-1.07c1.05-.75,2.18-1.37,3.28-2.05.34-.21.68-.42,1.03-.61l3.68-1.75c1.26-.51,2.49-1.09,3.73-1.63,1.08-.45,2.23-.88,2.95-1.46.46-.37.37-.48-.41-.3-.88.21-1.79.44-2.69.72-.8.22-1.56.58-2.34.88-.77.33-1.56.61-2.3.99-1.49.77-3.02,1.46-4.44,2.35l-1.94,1.13-1.86,1.26c-1.27.8-2.39,1.82-3.57,2.75-.94.81-1.87,1.72-2.82,2.55-.84.81-1.62,1.67-2.43,2.51-.79.86-1.48,1.81-2.21,2.72-.18.24-.37.5-.55.73-1.79,2.25-3.25,4.81-4.57,7.37-.49,1-1.07,1.96-1.5,3-.45,1.03-.89,2.06-1.28,3.11-.06.19-.14.39-.22.56-.61,1.42-1.16,2.92-1.61,4.42-.52,1.64-1.04,3.28-1.42,4.96l-.62,2.51-.54,2.52c-.91,4.19-1.64,8.46-1.89,12.77-.1,1.21-.12,2.43-.19,3.64l-.06,3.25c.03,1.09.03,2.18.12,3.26.14,1.69.31,3.39.62,5.07.13.84.32,1.68.52,2.52.11.42.2.83.33,1.25l.19.62.07.2s.05.09.03.1c-.04,0-.07.02-.11.03l-.15.07c-.13.06-.25.14-.37.22-.25.14-.45.34-.67.51-.2.19-.38.39-.56.59l-.47.64c-.55.89-.91,1.83-1.16,2.78-.51,1.9-.6,3.8-.57,5.67l.02.46s0,.07,0,.09h-.28s-1.78.04-1.78.04l-3.96.05c-3.57.06-7.15.15-10.71.28l-10.54.31-2.32.07c-.38.13-.2-.29-.23-.51v-.57c0-.23-.03-.45-.05-.68-.13-1.81-.63-3.58-1.44-5.19-.65-1.35-1.53-2.58-2.57-3.65-.2-.23-.47-.46-.67-.59-.38-.26-.99-.67-1.12-.55-.11.11.28.54.56.88h-.03Z" fill="#1c1f58"/><path d="M143.89,150.12c.89.38,1.76.78,2.61,1.21,8.64-6.49,8.58-21.57,27.16-13.98-.49-.41.49.41,0,0-30.64-20.62-45.42-12.39-45.42-12.39l-43.49,16.96s26.19-6.86,59.14,8.19h0Z" fill="#aee865"/><path d="M142.87,149.31c-.43-.25-.79-.5-1.31-.76-1.84-.91-3.68-1.85-5.64-2.57-1.94-.77-3.89-1.56-5.95-2.11-1.88-.55-3.74-1.17-5.63-1.61-3.23-.87-6.54-1.5-9.83-1.96-4.97-.72-9.99-.95-15.01-.89-5.02.11-10,.53-14.98,1.7l.52,1.59,12.3-4.97c7.49-3.01,14.98-6.03,22.48-9.05l5.63-2.24,2.82-1.12c.93-.47,1.84-.72,2.81-.99,3.88-.91,7.97-.8,11.92-.17,6.62,1.11,13.02,3.48,18.98,6.61,1.07.49,2.06,1.13,3.09,1.69,1.02.58,2.06,1.13,3.07,1.73l5.32,3.37.29-.47c-1.55-.62-3.13-1.2-4.76-1.63-2.06-.53-4.28-.79-6.46-.42-1.66.3-3.28.95-4.63,1.97-1.37,1-2.5,2.26-3.47,3.59-.3.41-.6.83-.89,1.24-2.02,2.79-3.78,5.71-6.11,8.07-.23.24-.55.54-.74.71l-.25.24c-.1-.02-.21-.07-.31-.1-.56-.2-1.27-.44-1.8-.52-.7-.11-.69.05.17.54.24.14.48.28.73.42l.37.21.51.27.28.14c.09.05.19.13.27.03l.5-.38.43-.32c.12-.09.23-.19.35-.29,3.27-2.79,5.13-6.68,7.6-9.86,1.11-1.42,2.36-2.71,3.84-3.61s3.18-1.39,4.94-1.44c1.45-.07,2.99.17,4.44.54,1.56.42,3.09.99,4.6,1.61l.82-1.36-.08-.07-.04-.04h0c.23-.27-1.95,2.32-1.03,1.22h0l.02.02.17.15.04.04.02.02h0c.46-.54-1.04,1.24,1.04-1.23h0l-.09-.08c-.1-.1-.2-.14-.25-.18l-.76-.49-1.53-.97c-.32-.2-.66-.4-.95-.61-.72-.51-1.46-1.02-2.2-1.51l-2.33-1.34c-1.56-.89-3.13-1.77-4.75-2.54-1.24-.6-2.44-1.3-3.74-1.83-1.29-.54-2.57-1.09-3.89-1.57-.24-.07-.49-.17-.71-.26-.9-.36-1.83-.69-2.76-1.01s-1.91-.51-2.85-.79c-4.17-1.1-8.56-1.61-12.96-1.31l-2.06.24c-.68.14-1.37.24-2.05.43-.68.17-1.36.38-2.04.65l-.53.23c-.17.08.02,0-.13.06l-.23.09-.93.36c-2.48.96-4.95,1.93-7.41,2.94-1.39.55-2.78,1.1-4.17,1.65-2.48.97-4.97,1.93-7.46,2.9-7.69,3.1-15.42,6.12-23.07,9.27l.48,1.48c.95-.25,1.97-.46,2.97-.65,3.18-.58,6.46-.82,9.72-.91,4.41-.13,8.84.06,13.24.43,8.67.87,17.22,2.91,25.43,5.85l1.28.44,1.26.51,2.51,1.03c.34.14.74.31,1.02.38.55.14,1.4.45,1.5.3.09-.13-.55-.49-1.03-.77l.02.04Z" fill="#1c1f58"/><path d="M98.67,172.64c22.29-23.77,41.65-37.65,74.99-35.27-37.96-27.24-79.97-13.68-115.29,14.49,15.36,2.26,29.55,9.57,40.3,20.78Z" fill="#aee865"/><path d="M97.74,171.21c-.42-.51-.76-.99-1.3-1.53-1.88-1.98-3.96-3.79-6.13-5.54-2.19-1.71-4.53-3.28-6.99-4.71-2.29-1.26-4.59-2.52-6.97-3.55-4.08-1.84-8.37-3.25-12.71-4.17l-1.78-.36-.41-.08h-.07l-.15-.03c-.08,0-.27-.03-.27-.04l.05-.05.02-.02.33-.26.7-.55c.46-.37.94-.72,1.41-1.08.95-.71,1.88-1.44,2.85-2.13,3.82-2.81,7.78-5.43,11.84-7.88,8.12-4.88,16.7-9.05,25.72-11.96,10.12-3.3,20.89-4.87,31.55-4.03,10.66.81,21.11,4.14,30.4,9.46.98.53,1.92,1.15,2.88,1.72.45.28,1.01.61,1.38.85l1.05.71,1.06.72.27.18.13.09s.06.04.05.04h-.08l-.61-.03-2.6-.1-1.69-.07-1.69.03-3.38.07c-1.13,0-2.25.16-3.37.23-1.12.11-2.25.16-3.37.31-8.45,1.06-16.65,3.75-24.25,7.58-1.23.67-2.47,1.35-3.72,2.03-1.23.71-2.41,1.51-3.61,2.26-.93.57-1.8,1.2-2.68,1.84l-2.65,1.89c-1.69,1.36-3.43,2.66-5.04,4.11-.5.44-1.01.89-1.51,1.33-3.48,2.95-6.78,6.11-9.88,9.43-1.3,1.45-2.71,2.97-3.47,4.21-.49.79-.33.82.65-.07,1.09-1,2.22-2.06,3.31-3.15,3.92-3.79,7.79-7.69,11.97-11.21.91-.81,1.89-1.53,2.84-2.3.96-.76,1.9-1.54,2.9-2.23l2.96-2.15,3.06-2c.42-.27.85-.55,1.28-.83.45-.25.9-.5,1.35-.75.91-.49,1.82-.99,2.71-1.48,1.7-.81,3.41-1.6,5.13-2.35l2.63-1.01c.88-.34,1.75-.7,2.66-.96.47-.15.95-.32,1.41-.44,2.21-.67,4.51-1.1,6.78-1.65,1.14-.26,2.31-.39,3.46-.59,1.16-.18,2.3-.39,3.47-.45.89-.07,1.79-.13,2.69-.2.9-.07,1.8-.14,2.7-.13,1.81,0,3.62-.11,5.43-.08.32,0,.67.03.98.06l.6.04.93.05,1.89.1c1.27.06,2.55.12,3.83.18l.48.02h.24c.07.02,0,0-.03-.03l-.09-.06-.75-.51-1.51-1.03c-1-.68-2-1.37-2.99-2.05l-.82-.57-.41-.28c-.15-.11-.17-.11-.27-.17l-.91-.56-1.82-1.12c-1.21-.76-2.5-1.39-3.75-2.08-1.26-.68-2.58-1.25-3.86-1.88-1.3-.6-2.64-1.11-3.96-1.68-6.67-2.58-13.72-4.35-20.87-4.8-1-.08-2.01-.16-3.02-.17-1.01-.02-2.02-.09-3.02-.07-3.59,0-7.18.24-10.75.7-6.21.91-12.32,2.45-18.23,4.52-5.9,2.08-11.59,4.71-17.04,7.71-3.82,2.13-7.66,4.31-11.34,6.71-1.25.81-2.47,1.65-3.71,2.48l-3.63,2.59-3.55,2.69-2.12,1.67-1.35,1.07-.67.53s-.02.03.02.04l.1.02.21.03.41.07,3.19.51c.3.05.44.08.62.11l.53.11,1.06.21c.71.13,1.41.31,2.11.48.7.18,1.41.33,2.1.54,2.79.76,5.51,1.75,8.19,2.85,5.33,2.25,10.39,5.15,15.02,8.63,1.93,1.44,3.75,3.01,5.52,4.63.37.32.77.74,1.07.97.58.46,1.46,1.28,1.62,1.19.14-.08-.49-.83-.96-1.4v.06Z" fill="#1c1f58"/><path d="M74.35,143.24c-.09.26-.18.51-.28.79-.31,1.07-.89,1.92-1.69,2.7-.2.2-.4.39-.62.58l-.81.72c-.86.76-1.72,1.53-2.59,2.3,0,0-.03.02-.03.03h.05l.1.03.19.04.39.09.77.18,1.55.37c.25.06.54.13.78.2l.4.12.79.24c1.8.58,3.57,1.24,5.3,1.94,3.77,1.56,7.33,3.66,10.56,6.19.8.64,1.59,1.3,2.35,1.99.39.33.75.7,1.12,1.05l.28.27c.11.11.15.13.32.32l.89.93.87.92.11.11s.04.04.05.05l.04-.08.14-.3.28-.61c.19-.38.36-.84.57-1.22l.22-.4c.05-.11.13-.2.19-.31.51-.82,1.16-1.56,1.92-2.17,1.69-1.39,3.92-2.16,6.14-2.07.56,0,1.11.09,1.66.21l.58.14.31.08c.09,0,.16-.13.24-.19l.77-.75c.84-.81,1.66-1.64,2.52-2.43,3.54-3.06,7.46-5.68,11.56-7.98,1.74-.9,3.45-1.89,5.24-2.69.89-.42,1.77-.85,2.67-1.25l2.72-1.13c3.44-1.37,6.89-2.77,10.48-3.74,1.18-.33,2.37-.66,3.56-.99,1.82-.52,3.66-.9,5.49-1.4.28-.08.56-.16.85-.21l3.28-.65c-.04-.38-.1-.81-.1-1.19,0-.29.03-.47.07-.7.08-.43.24-.83.49-1.18.43-.58,1.18-.89,1.75-1.26.36-.26.34-.39-.29-.38-.69.03-1.49.25-2.1.82-.49.44-.81,1.05-.97,1.66-.09.3-.12.63-.14.92,0,.13,0,.24.02.36l-3.32.78c-2.1.49-4.2,1.02-6.27,1.67-.86.25-1.76.5-2.63.76-1.62.43-3.22.93-4.81,1.5-.21.07-.42.16-.62.21-1.99.56-3.94,1.37-5.87,2.16-.75.29-1.5.59-2.26.88-.74.32-1.48.67-2.2,1.05-.13.07-.27.12-.4.17-1.07.36-2.09.92-3.09,1.44-1.11.57-2.24,1.11-3.31,1.77l-3.22,1.95-3.92,2.63c-1.25.96-2.47,1.96-3.68,2.97l-1.93,1.85-.86.82-.1.1h0s0,0,0,0c-.01,0-.02,0-.04,0,.06,0-.23-.07-.43-.11l-.64-.11c-.42-.09-.86-.08-1.29-.11-3.02-.04-5.98,1.24-8.02,3.41-.51.54-.95,1.14-1.35,1.77-.24.43-.21.4-.25.48l-.04.12s-.01.14-.06.07l-.68-.63c-.51-.47-1-.95-1.54-1.39-1.46-1.27-2.95-2.54-4.53-3.68-2.14-1.54-4.43-2.87-6.82-3.96-2.35-1.07-4.79-1.98-7.28-2.66l-.94-.24-.46-.12-.27-.06-.56-.11-.29-.06h-.07l.03-.06.1-.1.88-.85c.46-.46.92-.93,1.32-1.47.68-.87,1.16-1.94,1.3-3.04.04-.22.06-.49.03-.66-.05-.34-.11-.88-.28-.89-.15,0-.24.41-.33.71v-.03Z" fill="#1c1f58"/><path d="M99.6,143.27c-.02-.18.03-.35.05-.55-.02-.7.2-1.38.48-2.05.14-.33.3-.66.49-.99.16-.33.38-.65.58-.98.38-.6.83-1.16,1.33-1.69.85-.9,1.75-1.78,2.69-2.59,4.12-3.56,9.23-6.22,14.61-7.31,1.51-.28,3.07-.4,4.56-.18.37.05.73.16,1.09.25.33.15.7.24.99.45.33.16.57.42.84.65.2.28.44.55.54.89.27.64.32,1.4.17,2.13-.11.74-.42,1.45-.75,2.15-.73,1.37-1.72,2.61-2.83,3.73-1.87,1.85-3.98,3.5-6.31,4.76-2.18,1.2-4.43,2.36-6.86,2.95-.8.18-1.61.37-2.42.52-1.24.22-2.49.3-3.73.33-.19.02-.38,0-.57-.02-1.3-.13-2.52-.46-3.59-1-.48-.24-.84-.61-1.31-.8-.32-.12-.44-.06-.27.35.16.47.5.89.89,1.24.71.61,1.58.89,2.43,1.11.86.16,1.72.24,2.57.24,1.52,0,3.03-.15,4.48-.53.61-.13,1.22-.31,1.84-.43,1.12-.28,2.23-.62,3.3-1.09.14-.06.28-.14.42-.18,1.39-.39,2.63-1.18,3.9-1.85.48-.28.97-.55,1.45-.83.47-.31.94-.62,1.37-.98.07-.07.17-.12.25-.17.7-.37,1.29-.92,1.89-1.43,1.34-1.12,2.51-2.45,3.54-3.92.63-.93,1.23-1.92,1.58-3.08.36-1.14.48-2.53-.08-3.8-.28-.72-.79-1.33-1.35-1.81-1.03-.83-2.22-1.24-3.37-1.42-2.02-.27-3.98-.07-5.85.33-1.87.41-3.68,1.03-5.37,1.85-1.19.57-2.42,1.09-3.59,1.72-1.59.83-3.08,1.86-4.47,2.99-1.36,1.12-2.66,2.34-3.79,3.71-1.12,1.37-2.11,2.91-2.55,4.7-.13.74-.26,1.52-.05,2.29.03.16.06.34.16.44.17.19.35.52.51.45.14-.06.12-.36.11-.56h0Z" fill="#1c1f58"/><path d="M440.67,30.52c-14.76,3.78-29.85,6.1-45.05,6.92,14.62,21.06,29.72,40.79,46,55.06,0,0,26.97-1.03,45.39-7.3-17.66-10.78-31.8-31.1-46.34-54.68h0Z" fill="#aee865"/><path d="M441.18,32c.26.54.46,1.03.8,1.64,2.4,4.34,4.94,8.67,7.8,12.94,1.3,1.98,2.63,3.93,3.94,5.88,2.3,3.32,4.66,6.63,7.2,9.75,5.49,6.83,11.52,13.31,18.47,18.76.84.71,1.77,1.31,2.66,1.97.45.32.89.65,1.35.96l1.22.78.33.2.09.05s-.04.02-.06.03l-.18.06-.7.23c-.51.17-1.03.33-1.55.47-4.14,1.23-8.39,2.16-12.65,2.97-4.8.91-9.64,1.62-14.5,2.19-2.43.29-4.87.52-7.31.74l-3.66.28-1.83.12-.77.04c-.09,0-.15-.11-.23-.16l-.33-.29c-7.38-6.44-14.07-13.66-20.42-21.15-5.27-6.29-10.34-12.74-15.16-19.39l-4.96-6.86-2.46-3.45-2.14-3.07,5.79-.33c2.55-.16,5.14-.39,7.71-.67,3.93-.44,7.85-.89,11.76-1.59.6-.1,1.21-.21,1.8-.32,4.11-.66,8.21-1.41,12.22-2.49,1.72-.47,3.55-.94,4.74-1.56.76-.39.65-.5-.54-.3-1.33.24-2.72.49-4.11.77-4.88,1.01-9.79,2.06-14.72,2.86-4.41.71-8.85,1.26-13.3,1.76-1.84.21-3.77.36-5.64.48-2.57.14-5.13.28-7.71.42,1.05,1.52,2.12,3.04,3.18,4.57.26.37.55.75.78,1.12,2.31,3.61,4.95,7.09,7.47,10.6,1.94,2.7,3.91,5.43,6.02,8.04.19.23.38.49.55.73,1.33,1.9,2.86,3.74,4.32,5.57,3.22,4.04,6.64,7.94,10.12,11.78,4.36,4.79,8.91,9.45,13.83,13.7l.82.73c.41,0,.98-.04,1.11-.05l1.37-.08,2.73-.18c3.24-.24,6.49-.48,9.72-.87,5.65-.67,11.29-1.49,16.88-2.64,2.79-.58,5.58-1.21,8.32-1.98l2.06-.58c.34-.09.68-.22,1.02-.32l1.35-.44,1.7-.55.84-.27.42-.14-.38-.24-2.98-1.89c-3.32-2.11-6.44-4.61-9.35-7.3-3.97-3.61-7.66-7.54-11.16-11.63-6.9-8.06-12.88-16.9-18.72-25.77l-3.57-5.58c-.24-.38-.52-.83-.74-1.1-.43-.53-1.05-1.44-1.22-1.38-.15.05.25.85.54,1.46l.02-.03Z" fill="#1c1f58"/><path d="M441.18,32c.26.54.46,1.03.8,1.64,2.4,4.34,4.94,8.67,7.8,12.94,1.3,1.98,2.63,3.93,3.94,5.88,2.3,3.32,4.66,6.63,7.2,9.75,5.49,6.83,11.52,13.31,18.47,18.76.84.71,1.77,1.31,2.66,1.97.45.32.89.65,1.35.96l1.22.78.33.2.09.05s-.04.02-.06.03l-.18.06-.7.23c-.51.17-1.03.33-1.55.47-4.14,1.23-8.39,2.16-12.65,2.97-4.8.91-9.64,1.62-14.5,2.19-2.43.29-4.87.52-7.31.74l-3.66.28-1.83.12-.77.04c-.09,0-.15-.11-.23-.16l-.33-.29c-7.38-6.44-14.07-13.66-20.42-21.15-5.27-6.29-10.34-12.74-15.16-19.39l-4.96-6.86-2.46-3.45-2.14-3.07,5.79-.33c2.55-.16,5.14-.39,7.71-.67,3.93-.44,7.85-.89,11.76-1.59.6-.1,1.21-.21,1.8-.32,4.11-.66,8.21-1.41,12.22-2.49,1.72-.47,3.55-.94,4.74-1.56.76-.39.65-.5-.54-.3-1.33.24-2.72.49-4.11.77-4.88,1.01-9.79,2.06-14.72,2.86-4.41.71-8.85,1.26-13.3,1.76-1.84.21-3.77.36-5.64.48-2.57.14-5.13.28-7.71.42,1.05,1.52,2.12,3.04,3.18,4.57.26.37.55.75.78,1.12,2.31,3.61,4.95,7.09,7.47,10.6,1.94,2.7,3.91,5.43,6.02,8.04.19.23.38.49.55.73,1.33,1.9,2.86,3.74,4.32,5.57,3.22,4.04,6.64,7.94,10.12,11.78,4.36,4.79,8.91,9.45,13.83,13.7l.82.73c.41,0,.98-.04,1.11-.05l1.37-.08,2.73-.18c3.24-.24,6.49-.48,9.72-.87,5.65-.67,11.29-1.49,16.88-2.64,2.79-.58,5.58-1.21,8.32-1.98l2.06-.58c.34-.09.68-.22,1.02-.32l1.35-.44,1.7-.55.84-.27.42-.14-.38-.24-2.98-1.89c-3.32-2.11-6.44-4.61-9.35-7.3-3.97-3.61-7.66-7.54-11.16-11.63-6.9-8.06-12.88-16.9-18.72-25.77l-3.57-5.58c-.24-.38-.52-.83-.74-1.1-.43-.53-1.05-1.44-1.22-1.38-.15.05.25.85.54,1.46l.02-.03Z" fill="#1c1f58"/><path d="M407.41,49.01c.17.44.28.84.51,1.33,1.74,3.44,3.9,6.7,6.32,9.83,1.11,1.45,2.23,2.88,3.35,4.3,1.94,2.43,3.95,4.82,6.02,7.1,1.79,2,3.62,3.96,5.46,5.91l2.78,2.91,3.15,3.22c.23-.04.49-.09.67-.1l.3-.04h.18c.22-.03.45-.02.68-.02.46,0,.93.05,1.4.11.93.14,1.86.37,2.78.66,1.83.59,3.59,1.48,5.25,2.5.82.54,1.64,1.07,2.43,1.68l.31.23c.19.13.35.29.54.37h.63l.42-.02c.52-.05,1.05-.1,1.55-.17,2.03-.28,4.01-.65,6-1.02l6.33-1.28c2.23-.48,4.46-.95,6.69-1.43l.09-1c.04-.3.06-.46.1-.69.08-.43.18-.86.3-1.28.13-.42.28-.83.45-1.23.1-.23.15-.34.32-.67l.48-.85-1.6-1.29c-.43-.35-.88-.67-1.29-1.05-.81-.76-1.63-1.51-2.43-2.28l-2.32-2.42-2.22-2.52c-2.9-3.41-5.62-6.97-8.24-10.62-3.66-5.13-7.19-10.37-10.47-15.76l-1.15-1.91-.29-.48-.18-.3-.09-.15s-.11-.04-.17-.06l-.33-.11c-.09-.03-.17-.06-.26-.09-.17-.07-.34-.13-.51-.2-1.34-.57-2.57-1.39-3.61-2.4-.52-.51-1-1.06-1.41-1.66-.1-.15-.2-.29-.34-.51l-.18-.3-.09-.15s-.05-.12-.12-.08l-1.27.23c-1.47.27-2.93.52-4.41.76-1.94.31-3.9.65-5.86,1.01-2.99.54-5.98,1-8.96,1.61-.46.09-.92.19-1.38.26l-4.1.7-.32.32c-.07.11-.3.22-.17.31.1.17.16.47.18.86.14.21.34.43.42.62.05.12.12.24.14.37.08.25.11.52.11.79.02.54-.18,1.09-.41,1.63-.56,1.14-1.56,2.15-2.15,3-.36.56-.24.64.54.1.87-.6,1.73-1.37,2.38-2.37.41-.62.72-1.36.78-2.17.03-.2.02-.4,0-.61,0-.21-.04-.41-.1-.61-.04-.2-.12-.39-.2-.58-.05-.13-.04-.09-.07-.14l-.05-.1c-.08-.11-.16-.22-.27-.32-.12-.07.06-.05.11-.07l.22-.04,4.85-.91c3.39-.61,6.79-1.2,10.18-1.87,1.4-.27,2.87-.52,4.3-.75l3.95-.65.9-.16c.09,0,.19-.06.22.06l.03.06.1.15c.1.15.2.3.31.44.21.29.44.57.67.84.26.27.52.55.77.81,1.2,1.28,2.74,2.28,4.42,2.91.5.22.14-.07.43.34l.65,1.07,1.3,2.14c1.32,2.2,2.65,4.42,4.13,6.54.13.19.26.4.37.59.88,1.56,1.97,3.05,2.97,4.54,2.23,3.29,4.61,6.49,7.07,9.65,3.07,3.93,6.26,7.82,10.03,11.21l.77.71.83.67.94.76h0l-.28.59c-.2.45-.37.91-.52,1.38-.15.47-.27.94-.36,1.42l-.07.36-.04.27v.04l-1.27.27c-4.25.91-8.52,1.77-12.79,2.53-1.07.19-2.13.37-3.2.52-.53.07-1.06.15-1.58.2-.26.03-.53.05-.74.05-.1,0-.09.02-.21-.07-1.76-1.36-3.67-2.54-5.71-3.47-1.38-.61-2.81-1.16-4.3-1.53-.74-.19-1.51-.32-2.28-.4-.39-.03-.78-.06-1.18-.06-.19,0-.41.01-.58.02-.12,0-.21.02-.27.03-.03-.02-.06-.06-.09-.09l-4.21-4.4-4.26-4.53c-5.54-6-10.91-12.2-15.66-18.82-.99-1.37-1.89-2.8-2.78-4.23-.17-.3-.36-.65-.53-.87-.33-.41-.77-1.13-.94-1.08-.15.04.1.69.29,1.18l.02-.03Z" fill="#1c1f58"/><path d="M448,73.57c-.17.07-.32.11-.51.17-1.28.55-2.67.53-4.11.36-.67-.06-1.33-.24-1.97-.46-1.11-.36-2.2-.85-3.26-1.36-4.61-2.31-8.69-6.13-11.08-10.78-.64-1.31-1.14-2.73-1.22-4.16-.08-1.41.24-2.9,1.28-3.84.99-1,2.52-1.33,3.97-1.3,1.48.03,2.96.4,4.36.95,2.34.92,4.56,2.23,6.46,3.9,1.79,1.57,3.56,3.24,4.77,5.31.4.67.78,1.37,1.15,2.07.54,1.08.89,2.22,1.22,3.36.04.18.09.35.12.53.16,1.23.1,2.43-.16,3.57-.06.24-.17.48-.23.73-.08.24-.17.46-.16.72,0,.33.1.42.41.15.38-.29.66-.69.91-1.12.74-1.61.54-3.4.17-4.97-.35-1.43-.9-2.79-1.64-4.03-.3-.52-.61-1.05-.92-1.58-.57-.96-1.22-1.88-1.98-2.71-.1-.11-.22-.21-.3-.32-.78-1.16-1.91-2.02-2.94-2.95-.81-.7-1.65-1.41-2.61-1.92-.09-.04-.17-.11-.24-.17-.58-.5-1.3-.81-1.97-1.18-1.5-.78-3.15-1.3-4.87-1.59-1.08-.16-2.21-.23-3.36-.06-1.15.19-2.34.7-3.22,1.6-.27.23-.47.51-.68.8-.23.27-.37.59-.52.9-.5,1.12-.69,2.32-.6,3.45.2,1.97.87,3.76,1.74,5.4.88,1.63,1.98,3.11,3.25,4.42.88.92,1.74,1.87,2.7,2.72,1.28,1.16,2.71,2.17,4.23,2.99,1.5.81,3.07,1.5,4.72,1.95,1.65.42,3.42.68,5.13.22l.53-.14c.17-.06.34-.14.51-.21.35-.12.65-.35.95-.55.13-.07.26-.2.32-.31.11-.22.34-.49.22-.61-.11-.11-.37,0-.56.08v-.03Z" fill="#1c1f58"/><path d="M377.79,416.7c-1.22-.56-2.38-1.13-3.54-1.71-12.88,5.96-14.49,22.9-39.78,11.6.69.49-.72-.48,0,0,40.79,27.75,62.45,20.68,62.45,20.68l63.06-12.53s-37.59,3.86-82.19-18.05h0Z" fill="#aee865"/><path d="M379.2,417.73c.59.34,1.09.67,1.79,1.03,2.5,1.29,5,2.61,7.65,3.7,2.62,1.13,5.26,2.31,8.03,3.22,2.53.88,5.04,1.85,7.59,2.6,4.35,1.44,8.81,2.6,13.24,3.61,6.97,1.56,14.04,2.63,21.14,3.32,7.12.65,14.24.93,21.43.35l-.25-1.63c-5.42,1.13-10.84,2.25-16.26,3.38-10.87,2.25-21.74,4.5-32.62,6.75l-16.32,3.34c-2.72.38-5.5.42-8.25.22-1.38-.06-2.75-.25-4.12-.43-1.38-.14-2.73-.47-4.09-.71-4.52-.96-8.99-2.25-13.3-3.93l-3.25-1.24-3.17-1.42c-1.05-.48-2.12-.94-3.16-1.44l-3.09-1.6c-3.23-1.59-6.3-3.48-9.43-5.26-1.56-.91-3.05-1.93-4.57-2.9l-2.27-1.48-1.14-.74c-.11-.08-.66-.43-.2-.13l.18.12.09.06h.01c.16-.26-.29.5-.28.48h-.01l-.03-.03-.1-.07.11.04,2.11.92,2.18.86c2.72,1.01,5.61,1.79,8.58,2.03,2.26.18,4.59.06,6.8-.6,2.22-.62,4.26-1.78,6.06-3.18.55-.44,1.09-.89,1.62-1.34,3.61-3.1,6.69-6.66,10.57-9.14.42-.26.84-.54,1.28-.76l.49-.28c.07-.02.14.05.22.06l.27.11c.9.37,1.75.69,2.48.87.93.23.9.07-.28-.6-.68-.38-1.37-.76-2.07-1.15l-.38-.2-.19-.1c-.06,0-.13.05-.19.07l-.71.33c-.38.16-.74.35-1.1.56-2.56,1.39-4.75,3.32-6.8,5.3-2.06,1.98-4.01,4.02-6.25,5.65-1.98,1.47-4.23,2.54-6.62,3.02-2.39.51-4.89.39-7.33.01-2.03-.33-4.1-.95-6.07-1.66l-2.14-.85-2.22-.98-.23.33-.1.14.08-.11.24-.34s.06.02.09.02h.02l-.68,1.19c-.21.37-.06.1-.11.19h0l-.11-.07.58.39,1.48.98c.99.65,1.99,1.29,2.99,1.94.43.28.89.55,1.29.84,4.03,2.69,8.39,5.11,12.76,7.33,1.65.92,3.39,1.7,5.12,2.5l2.61,1.18c.88.36,1.79.68,2.69,1.01.32.12.65.25.96.39,1.21.54,2.46,1.04,3.75,1.42,1.28.41,2.57.82,3.84,1.22,5.65,1.67,11.56,2.68,17.55,2.69,1.87.02,3.75-.11,5.63-.39.47-.08.94-.16,1.43-.28.12-.03.23-.05.37-.09l.1-.03s.03,0,.02,0c-.04.01-.01,0-.02,0h0l.14-.03.67-.13,2.69-.53c3.58-.71,7.17-1.43,10.74-2.18,2.01-.41,4.03-.82,6.04-1.23,3.59-.71,7.19-1.42,10.79-2.14,10.63-2.19,21.27-4.38,31.89-6.57l-.24-1.58c-1.91.19-3.88.27-5.83.33-4.47.13-8.99-.17-13.48-.54-6.07-.52-12.11-1.44-18.1-2.53-11.79-2.26-23.35-5.78-34.48-10.31l-1.74-.69-1.7-.77-3.41-1.54c-.46-.21-1-.46-1.38-.58-.73-.24-1.88-.72-2-.58-.1.12.77.62,1.43,1h-.04Z" fill="#1c1f58"/><path d="M443.93,398.19c-34.03,23.33-62.83,36.04-109.45,28.36,50.33,36.28,111.04,27.29,163.81,1-20.56-4.39-39.41-14.58-54.36-29.36h0Z" fill="#aee865"/><path d="M445.33,400.01c.6.66,1.1,1.28,1.86,1.98,2.64,2.6,5.51,5.01,8.49,7.33,3,2.29,6.17,4.41,9.47,6.39,3.08,1.76,6.18,3.49,9.37,4.97,5.46,2.62,11.2,4.75,17,6.31l1.63.43.81.22.27.07.09.02.79.17-.07.04h-.02l-.2.11-1,.49c-1.32.66-2.68,1.26-4.01,1.89-1.34.63-2.69,1.24-4.04,1.83-1.36.59-2.7,1.21-4.07,1.76-5.45,2.32-11,4.38-16.61,6.26-11.22,3.77-22.76,6.57-34.47,8.24-14.41,2.02-29.16,2.11-43.56-.31-14.39-2.39-28.38-7.35-41.05-14.64-1.64-.89-3.2-1.89-4.78-2.88l-1.18-.74-.59-.37-.48-.32-1.88-1.28-1.42-.98,1.7.24,4.55.63c1.72.26,3.46.34,5.19.52l2.6.24c.87.09,1.73.16,2.6.18l5.22.21c11.58.36,23.16-1.21,34.36-4.13,1.86-.42,3.69-1.03,5.53-1.62l2.76-.89c.91-.32,1.81-.69,2.71-1.03l4.13-1.6,4.05-1.78,2.02-.9,1.98-.99c1.32-.67,2.63-1.34,3.95-2.01.8-.44,1.6-.88,2.39-1.32l4.09-2.22,4.01-2.37c2.69-1.55,5.24-3.31,7.82-5.01,2.19-1.51,4.49-3.12,5.94-4.45.92-.86.74-.9-.79.03-1.73,1.04-3.51,2.15-5.29,3.29-6.29,3.95-12.65,7.9-19.25,11.36-5.9,3.08-12.02,5.7-18.27,8.03-1.31.43-2.65.86-3.99,1.3l-2.02.64c-.68.17-1.36.34-2.04.52l-3.74.94c-1.24.33-2.52.51-3.78.77l-3.79.73c-1.28.18-2.55.35-3.83.53-.67.09-1.36.21-2,.28-6.31.47-12.75.93-19.14.57-1.23-.06-2.46-.11-3.69-.17-1.23-.08-2.46-.23-3.69-.34-2.46-.25-4.94-.42-7.4-.78-.45-.06-.88-.13-1.35-.21-1.48-.23-2.96-.45-4.48-.68-.19.3-.34.62-.5.94l-.37,1.01c1.6,1.1,3.19,2.2,4.78,3.29,6.44,4.29,13.35,7.9,20.51,10.92,2.25.91,4.48,1.85,6.78,2.63,2.27.86,4.6,1.54,6.92,2.25,4.67,1.31,9.4,2.46,14.2,3.18l2.02.34,2.03.27c1.36.16,2.7.39,4.06.5,4.84.5,9.7.79,14.58.8,17.02-.09,33.99-2.94,50.12-8.01,5.68-1.76,11.38-3.65,16.95-5.82,3.71-1.42,7.37-2.97,11-4.58,1.82-.8,3.6-1.66,5.4-2.5l6.9-3.38-.62-.14-4.18-.95c-.78-.17-1.16-.28-1.65-.41l-1.43-.38c-.96-.24-1.91-.51-2.85-.81-.94-.29-1.9-.55-2.83-.88-3.76-1.22-7.43-2.7-11.03-4.31-7.19-3.28-14.03-7.33-20.37-12.05-1.31-.99-2.61-1.98-3.87-3.04-1.29-1.02-2.5-2.12-3.74-3.2-.51-.43-1.07-.98-1.48-1.31-.79-.63-2-1.73-2.17-1.65-.14.07.75,1.05,1.43,1.79h0Z" fill="#1c1f58"/><path d="M474.81,437.07c.13-.37.29-.67.44-1.08.56-1.47,1.43-2.8,2.48-3.95.53-.58,1.11-1.11,1.72-1.61.16-.13.3-.22.49-.37.3-.23.61-.47.99-.7l1.98-1.32.45-.3s.12-.06.07-.07l-.13-.04-.26-.08-1.03-.3-2.07-.61-.52-.16-.26-.08-.14-.05-.55-.19-1.09-.38c-2.48-.9-4.93-1.9-7.32-2.97-5.2-2.36-10.11-5.37-14.6-8.91-1.13-.88-2.21-1.81-3.29-2.76l-1.58-1.46-1.96-1.94-.33-.33c-.11-.08-.23-.33-.31-.1l-.57.75-.9,1.21c-.44.52-.93.99-1.42,1.46-.56.38-1.05.87-1.67,1.16l-.9.49-.96.38c-1.72.63-3.58.88-5.45.85-.94,0-1.87-.11-2.8-.25-.46-.08-.93-.16-1.39-.28-.23-.05-.46-.11-.68-.17l-.17-.05-.24-.07-.49-.16-3.14,1.91c-.98.58-1.92,1.23-2.97,1.7l-3.08,1.52c-.52.25-1.02.52-1.55.75l-1.59.65c-2.12.86-4.23,1.76-6.43,2.45l-3.26,1.1c-1.09.35-2.21.64-3.31.96-5.23,1.55-10.56,2.73-15.91,3.76-5.07.87-10.13,1.86-15.26,2.33-1.69.17-3.4.34-5.11.51-2.61.27-5.22.41-7.83.66-.4.04-.81.08-1.21.1l-2.39.11-1.24.05-.9.04-.45.02c-.13.02-.35-.02-.4.06.11.45.26.95.3,1.38.05.42.03.58,0,.86-.05.5-.22.95-.52,1.32-.62.78-1.84,1.01-2.67,1.3-.55.21-.52.35.32.41.92.04,2.03-.08,2.93-.82.57-.49.94-1.21,1.06-1.92.07-.34.08-.75.07-1,0-.14-.02-.27-.05-.4.03-.07.21-.03.3-.05l.5-.03,1.57-.1,3.14-.23c2.98-.21,5.96-.45,8.93-.82,1.23-.13,2.51-.27,3.76-.4,2.31-.22,4.61-.47,6.91-.85.3-.05.61-.11.9-.13,1.43-.11,2.85-.34,4.27-.59,1.42-.25,2.85-.51,4.27-.76,2.18-.43,4.4-.74,6.56-1.35.19-.05.4-.09.59-.13,1.53-.25,3.07-.68,4.59-1.02,3.33-.89,6.65-1.85,9.92-3.01,1.02-.35,2.06-.65,3.07-1.05l3.03-1.19c1-.42,2.04-.75,3-1.26l2.92-1.46,1.64-.82c.55-.27,1.06-.62,1.59-.93l3.27-1.93.11.03.56.16c.38.09.75.19,1.13.26,1.94.37,3.92.52,5.91.34,1.98-.18,3.97-.71,5.75-1.69.45-.24.89-.48,1.29-.8.39-.32.84-.57,1.19-.94l1.07-1.07c.17-.18.31-.4.46-.59l.07-.09.03-.04.05-.08s.07-.12.1-.13l.13.11.07.06.17.17.51.5c.69.65,1.41,1.28,2.12,1.91,2.03,1.74,4.09,3.47,6.26,5.06,2.94,2.13,6.07,4.02,9.31,5.62,3.2,1.58,6.5,2.95,9.89,4.06l1.28.4.64.2.42.12.79.21.2.05.1.03s-.03.03-.04.05l-.32.21c-.22.14-.43.29-.64.47l-.48.38-.5.46c-.68.61-1.26,1.31-1.81,2.04-.9,1.21-1.56,2.6-1.96,4.06-.07.3-.16.65-.15.9-.01.47-.02,1.22.17,1.25.14.02.26-.54.4-.95h.04Z" fill="#1c1f58"/><path d="M420.34,445.03c-.26,0-.5-.03-.79,0-2.12.22-4.21.45-6.34.67-.98.12-1.97.14-2.94.15-1.68.01-3.35-.07-4.98-.23-1.76-.19-3.54-.57-4.95-1.38-.73-.38-1.27-.92-1.64-1.51-.35-.6-.37-1.31-.23-2.04.39-1.49,1.56-2.91,2.87-4.1,1.32-1.2,2.83-2.24,4.4-3.18,3.55-2.1,7.47-3.64,11.49-4.73,4.03-1.08,8.2-1.75,12.38-1.66,1.74.03,3.48.18,5.16.6.84.2,1.66.48,2.42.85.4.16.72.44,1.09.65.16.13.31.28.46.42.16.14.31.28.41.46.53.59.7,1.36.76,2.11-.06.38-.03.77-.19,1.14l-.18.56-.28.53c-.76,1.41-1.96,2.58-3.26,3.55-.86.64-1.78,1.24-2.71,1.8-1.42.88-2.96,1.53-4.46,2.28-.23.11-.47.22-.71.31-1.64.66-3.32,1.15-4.95,1.84-.71.28-1.47.52-1.92.97-.29.29-.22.41.3.35.58-.07,1.19-.16,1.8-.29,2.1-.53,4.12-1.37,6.11-2.24,1.77-.8,3.53-1.67,5.16-2.77.67-.47,1.38-.93,2.05-1.43,1.23-.92,2.42-1.95,3.3-3.35.11-.18.2-.4.31-.57.58-.83.93-1.96.83-3.11-.05-.29-.05-.59-.15-.86l-.33-.81c-.12-.26-.31-.47-.47-.71-.08-.11-.17-.23-.25-.34l-.3-.28c-1.21-1.18-2.7-1.85-4.18-2.2-.13-.02-.27-.06-.4-.11-1-.37-2.07-.48-3.1-.6-2.28-.27-4.57-.16-6.82.04-2.82.24-5.62.7-8.32,1.49-.76.2-1.52.44-2.28.66-1.35.43-2.7.83-4.02,1.37-2.29.95-4.53,2.03-6.64,3.36-.53.32-1.05.67-1.55,1.05-.52.35-1,.76-1.48,1.16-.5.38-.92.87-1.38,1.3-.41.5-.86.94-1.2,1.5-.25.38-.52.75-.71,1.18-.1.21-.22.41-.31.63l-.23.69c-.09.22-.13.47-.15.72s-.07.5-.07.75c.06.51.08,1.03.32,1.49.53,1.3,1.63,2.17,2.72,2.76,1.12.54,2.29.91,3.47,1.12,4.64.82,9.3.38,13.79-.52.93-.21,1.86-.39,2.78-.65.19-.05.41-.1.54-.18.26-.15.71-.31.68-.48-.02-.15-.42-.15-.71-.15l-.02-.03Z" fill="#1c1f58"/></svg>